<mxfile host="app.diagrams.net" modified="2024-07-13T02:39:21.483Z" agent="Mozilla/5.0 (Windows NT 10.0; Win64; x64) AppleWebKit/537.36 (KHTML, like Gecko) Chrome/126.0.0.0 Safari/537.36" etag="tnlFuzprjuoGV_knl8Fz" version="24.6.5" type="device" pages="7">
  <diagram name="FamilyStructure" id="TJcqO_YrbzQMkcUQ-Eyf">
    <mxGraphModel dx="2759" dy="1013" grid="1" gridSize="10" guides="1" tooltips="1" connect="1" arrows="1" fold="1" page="1" pageScale="1" pageWidth="850" pageHeight="1100" math="0" shadow="0">
      <root>
        <mxCell id="0" />
        <mxCell id="1" parent="0" />
        <mxCell id="81Wqd9WhPyrRpSB4N27E-1" value="Cinthalapatty thatha" style="rounded=0;whiteSpace=wrap;html=1;strokeColor=default;" parent="1" vertex="1">
          <mxGeometry x="270" y="100" width="120" height="60" as="geometry" />
        </mxCell>
        <mxCell id="81Wqd9WhPyrRpSB4N27E-3" value="Cinthalapatty aatha" style="ellipse;whiteSpace=wrap;html=1;" parent="1" vertex="1">
          <mxGeometry x="430" y="95" width="115" height="70" as="geometry" />
        </mxCell>
        <mxCell id="81Wqd9WhPyrRpSB4N27E-7" value="" style="endArrow=none;html=1;rounded=0;exitX=1;exitY=0.5;exitDx=0;exitDy=0;entryX=0;entryY=0.5;entryDx=0;entryDy=0;" parent="1" source="81Wqd9WhPyrRpSB4N27E-1" target="81Wqd9WhPyrRpSB4N27E-3" edge="1">
          <mxGeometry width="50" height="50" relative="1" as="geometry">
            <mxPoint x="410" y="310" as="sourcePoint" />
            <mxPoint x="460" y="260" as="targetPoint" />
          </mxGeometry>
        </mxCell>
        <mxCell id="81Wqd9WhPyrRpSB4N27E-8" value="Erode Thatha" style="rounded=0;whiteSpace=wrap;html=1;strokeColor=default;" parent="1" vertex="1">
          <mxGeometry x="-400" y="285" width="120" height="60" as="geometry" />
        </mxCell>
        <mxCell id="81Wqd9WhPyrRpSB4N27E-9" value="Erode aatha" style="ellipse;whiteSpace=wrap;html=1;" parent="1" vertex="1">
          <mxGeometry x="-240" y="280" width="115" height="70" as="geometry" />
        </mxCell>
        <mxCell id="81Wqd9WhPyrRpSB4N27E-10" value="" style="endArrow=none;html=1;rounded=0;exitX=1;exitY=0.5;exitDx=0;exitDy=0;entryX=0;entryY=0.5;entryDx=0;entryDy=0;" parent="1" source="81Wqd9WhPyrRpSB4N27E-8" target="81Wqd9WhPyrRpSB4N27E-9" edge="1">
          <mxGeometry width="50" height="50" relative="1" as="geometry">
            <mxPoint x="-260" y="495" as="sourcePoint" />
            <mxPoint x="-210" y="445" as="targetPoint" />
          </mxGeometry>
        </mxCell>
        <mxCell id="81Wqd9WhPyrRpSB4N27E-26" value="Maniyaram thottam thatha" style="rounded=0;whiteSpace=wrap;html=1;strokeColor=default;" parent="1" vertex="1">
          <mxGeometry x="-50" y="285" width="120" height="60" as="geometry" />
        </mxCell>
        <mxCell id="81Wqd9WhPyrRpSB4N27E-27" value="Maniyaram thottam aatha" style="ellipse;whiteSpace=wrap;html=1;" parent="1" vertex="1">
          <mxGeometry x="110" y="280" width="115" height="70" as="geometry" />
        </mxCell>
        <mxCell id="81Wqd9WhPyrRpSB4N27E-28" value="" style="endArrow=none;html=1;rounded=0;exitX=1;exitY=0.5;exitDx=0;exitDy=0;entryX=0;entryY=0.5;entryDx=0;entryDy=0;" parent="1" source="81Wqd9WhPyrRpSB4N27E-26" target="81Wqd9WhPyrRpSB4N27E-27" edge="1">
          <mxGeometry width="50" height="50" relative="1" as="geometry">
            <mxPoint x="90" y="495" as="sourcePoint" />
            <mxPoint x="140" y="445" as="targetPoint" />
          </mxGeometry>
        </mxCell>
        <mxCell id="81Wqd9WhPyrRpSB4N27E-29" value="Puthuveetu Thatha" style="rounded=0;whiteSpace=wrap;html=1;strokeColor=default;" parent="1" vertex="1">
          <mxGeometry x="300" y="285" width="120" height="60" as="geometry" />
        </mxCell>
        <mxCell id="81Wqd9WhPyrRpSB4N27E-30" value="puthuveetu aatha" style="ellipse;whiteSpace=wrap;html=1;" parent="1" vertex="1">
          <mxGeometry x="460" y="280" width="115" height="70" as="geometry" />
        </mxCell>
        <mxCell id="81Wqd9WhPyrRpSB4N27E-31" value="" style="endArrow=none;html=1;rounded=0;exitX=1;exitY=0.5;exitDx=0;exitDy=0;entryX=0;entryY=0.5;entryDx=0;entryDy=0;" parent="1" source="81Wqd9WhPyrRpSB4N27E-29" target="81Wqd9WhPyrRpSB4N27E-30" edge="1">
          <mxGeometry width="50" height="50" relative="1" as="geometry">
            <mxPoint x="440" y="495" as="sourcePoint" />
            <mxPoint x="490" y="445" as="targetPoint" />
          </mxGeometry>
        </mxCell>
        <mxCell id="81Wqd9WhPyrRpSB4N27E-35" value="Mekala thotathu thatha" style="rounded=0;whiteSpace=wrap;html=1;strokeColor=default;" parent="1" vertex="1">
          <mxGeometry x="720" y="290" width="120" height="60" as="geometry" />
        </mxCell>
        <mxCell id="81Wqd9WhPyrRpSB4N27E-36" value="mekala thotathu aatha" style="ellipse;whiteSpace=wrap;html=1;" parent="1" vertex="1">
          <mxGeometry x="880" y="285" width="115" height="70" as="geometry" />
        </mxCell>
        <mxCell id="81Wqd9WhPyrRpSB4N27E-37" value="" style="endArrow=none;html=1;rounded=0;exitX=1;exitY=0.5;exitDx=0;exitDy=0;entryX=0;entryY=0.5;entryDx=0;entryDy=0;" parent="1" source="81Wqd9WhPyrRpSB4N27E-35" target="81Wqd9WhPyrRpSB4N27E-36" edge="1">
          <mxGeometry width="50" height="50" relative="1" as="geometry">
            <mxPoint x="860" y="500" as="sourcePoint" />
            <mxPoint x="910" y="450" as="targetPoint" />
          </mxGeometry>
        </mxCell>
        <mxCell id="81Wqd9WhPyrRpSB4N27E-41" value="vadakala thotathu thatha" style="rounded=0;whiteSpace=wrap;html=1;strokeColor=default;" parent="1" vertex="1">
          <mxGeometry x="1080" y="285" width="120" height="60" as="geometry" />
        </mxCell>
        <mxCell id="81Wqd9WhPyrRpSB4N27E-42" value="vadakala thotathu aatha" style="ellipse;whiteSpace=wrap;html=1;" parent="1" vertex="1">
          <mxGeometry x="1240" y="280" width="115" height="70" as="geometry" />
        </mxCell>
        <mxCell id="81Wqd9WhPyrRpSB4N27E-43" value="" style="endArrow=none;html=1;rounded=0;exitX=1;exitY=0.5;exitDx=0;exitDy=0;entryX=0;entryY=0.5;entryDx=0;entryDy=0;" parent="1" source="81Wqd9WhPyrRpSB4N27E-41" target="81Wqd9WhPyrRpSB4N27E-42" edge="1">
          <mxGeometry width="50" height="50" relative="1" as="geometry">
            <mxPoint x="1220" y="495" as="sourcePoint" />
            <mxPoint x="1270" y="445" as="targetPoint" />
          </mxGeometry>
        </mxCell>
        <mxCell id="81Wqd9WhPyrRpSB4N27E-44" value="chinna thatha" style="rounded=0;whiteSpace=wrap;html=1;strokeColor=default;" parent="1" vertex="1">
          <mxGeometry x="1440" y="285" width="120" height="60" as="geometry" />
        </mxCell>
        <mxCell id="81Wqd9WhPyrRpSB4N27E-45" value="chinna aatha" style="ellipse;whiteSpace=wrap;html=1;" parent="1" vertex="1">
          <mxGeometry x="1600" y="280" width="115" height="70" as="geometry" />
        </mxCell>
        <mxCell id="81Wqd9WhPyrRpSB4N27E-46" value="" style="endArrow=none;html=1;rounded=0;exitX=1;exitY=0.5;exitDx=0;exitDy=0;entryX=0;entryY=0.5;entryDx=0;entryDy=0;" parent="1" source="81Wqd9WhPyrRpSB4N27E-44" target="81Wqd9WhPyrRpSB4N27E-45" edge="1">
          <mxGeometry width="50" height="50" relative="1" as="geometry">
            <mxPoint x="1580" y="495" as="sourcePoint" />
            <mxPoint x="1630" y="445" as="targetPoint" />
          </mxGeometry>
        </mxCell>
      </root>
    </mxGraphModel>
  </diagram>
  <diagram id="dW8kS0qYmkoSBlfsNL4W" name="Erode thatha">
    <mxGraphModel dx="5900" dy="2228" grid="1" gridSize="10" guides="1" tooltips="1" connect="1" arrows="1" fold="1" page="1" pageScale="1" pageWidth="850" pageHeight="1100" math="0" shadow="0">
      <root>
        <mxCell id="0" />
        <mxCell id="1" parent="0" />
        <mxCell id="mq-QXFXsVgbL6Cf_iuzs-1" value="Kuppusamy" style="rounded=0;whiteSpace=wrap;html=1;" vertex="1" parent="1">
          <mxGeometry x="360" y="260" width="120" height="60" as="geometry" />
        </mxCell>
        <mxCell id="mq-QXFXsVgbL6Cf_iuzs-2" value="Erode aatha" style="ellipse;whiteSpace=wrap;html=1;" vertex="1" parent="1">
          <mxGeometry x="540" y="260" width="120" height="60" as="geometry" />
        </mxCell>
        <mxCell id="mq-QXFXsVgbL6Cf_iuzs-3" value="" style="endArrow=none;html=1;rounded=0;exitX=0;exitY=0.5;exitDx=0;exitDy=0;entryX=1;entryY=0.5;entryDx=0;entryDy=0;" edge="1" parent="1" source="mq-QXFXsVgbL6Cf_iuzs-2" target="mq-QXFXsVgbL6Cf_iuzs-1">
          <mxGeometry width="50" height="50" relative="1" as="geometry">
            <mxPoint x="400" y="320" as="sourcePoint" />
            <mxPoint x="450" y="270" as="targetPoint" />
          </mxGeometry>
        </mxCell>
        <mxCell id="mq-QXFXsVgbL6Cf_iuzs-4" value="" style="endArrow=none;html=1;rounded=0;" edge="1" parent="1">
          <mxGeometry width="50" height="50" relative="1" as="geometry">
            <mxPoint x="509" y="350" as="sourcePoint" />
            <mxPoint x="509" y="290" as="targetPoint" />
          </mxGeometry>
        </mxCell>
        <mxCell id="mq-QXFXsVgbL6Cf_iuzs-5" value="" style="endArrow=none;html=1;rounded=0;" edge="1" parent="1">
          <mxGeometry width="50" height="50" relative="1" as="geometry">
            <mxPoint x="-750" y="350" as="sourcePoint" />
            <mxPoint x="1860" y="350" as="targetPoint" />
          </mxGeometry>
        </mxCell>
        <mxCell id="mq-QXFXsVgbL6Cf_iuzs-6" value="" style="endArrow=classic;html=1;rounded=0;" edge="1" parent="1">
          <mxGeometry width="50" height="50" relative="1" as="geometry">
            <mxPoint x="135" y="349" as="sourcePoint" />
            <mxPoint x="135" y="409" as="targetPoint" />
          </mxGeometry>
        </mxCell>
        <mxCell id="mq-QXFXsVgbL6Cf_iuzs-7" value="Erode Thatha" style="text;html=1;align=center;verticalAlign=middle;whiteSpace=wrap;rounded=0;" vertex="1" parent="1">
          <mxGeometry x="389" y="230" width="60" height="30" as="geometry" />
        </mxCell>
        <mxCell id="mq-QXFXsVgbL6Cf_iuzs-8" value="Kuppusamy" style="rounded=0;whiteSpace=wrap;html=1;" vertex="1" parent="1">
          <mxGeometry x="659" y="410" width="120" height="60" as="geometry" />
        </mxCell>
        <mxCell id="mq-QXFXsVgbL6Cf_iuzs-9" value="Muthulakshmi" style="ellipse;whiteSpace=wrap;html=1;" vertex="1" parent="1">
          <mxGeometry x="824" y="410" width="120" height="60" as="geometry" />
        </mxCell>
        <mxCell id="mq-QXFXsVgbL6Cf_iuzs-10" value="" style="endArrow=none;html=1;rounded=0;exitX=1;exitY=0.5;exitDx=0;exitDy=0;" edge="1" parent="1" source="mq-QXFXsVgbL6Cf_iuzs-8">
          <mxGeometry width="50" height="50" relative="1" as="geometry">
            <mxPoint x="1064" y="490" as="sourcePoint" />
            <mxPoint x="824" y="440" as="targetPoint" />
          </mxGeometry>
        </mxCell>
        <mxCell id="xFUgD21_2fmYF9zTELF0-1" value="" style="endArrow=classic;html=1;rounded=0;" edge="1" parent="1">
          <mxGeometry width="50" height="50" relative="1" as="geometry">
            <mxPoint x="-750" y="350" as="sourcePoint" />
            <mxPoint x="-750" y="410" as="targetPoint" />
          </mxGeometry>
        </mxCell>
        <mxCell id="xFUgD21_2fmYF9zTELF0-2" value="athai 1" style="ellipse;whiteSpace=wrap;html=1;" vertex="1" parent="1">
          <mxGeometry x="-810" y="410" width="120" height="60" as="geometry" />
        </mxCell>
        <mxCell id="xFUgD21_2fmYF9zTELF0-3" value="" style="endArrow=none;html=1;rounded=0;entryX=0;entryY=0.5;entryDx=0;entryDy=0;" edge="1" parent="1" target="xFUgD21_2fmYF9zTELF0-2">
          <mxGeometry width="50" height="50" relative="1" as="geometry">
            <mxPoint x="-860" y="440" as="sourcePoint" />
            <mxPoint x="-580" y="440" as="targetPoint" />
          </mxGeometry>
        </mxCell>
        <mxCell id="xFUgD21_2fmYF9zTELF0-4" value="husband" style="rounded=0;whiteSpace=wrap;html=1;" vertex="1" parent="1">
          <mxGeometry x="-980" y="410" width="120" height="60" as="geometry" />
        </mxCell>
        <mxCell id="xFUgD21_2fmYF9zTELF0-5" value="" style="endArrow=none;html=1;rounded=0;" edge="1" parent="1">
          <mxGeometry width="50" height="50" relative="1" as="geometry">
            <mxPoint x="-835" y="440" as="sourcePoint" />
            <mxPoint x="-835" y="510" as="targetPoint" />
          </mxGeometry>
        </mxCell>
        <mxCell id="xFUgD21_2fmYF9zTELF0-6" value="" style="endArrow=none;html=1;rounded=0;" edge="1" parent="1">
          <mxGeometry width="50" height="50" relative="1" as="geometry">
            <mxPoint x="-1020" y="510" as="sourcePoint" />
            <mxPoint x="-650" y="510" as="targetPoint" />
          </mxGeometry>
        </mxCell>
        <mxCell id="xFUgD21_2fmYF9zTELF0-7" value="Kumar" style="rounded=0;whiteSpace=wrap;html=1;" vertex="1" parent="1">
          <mxGeometry x="-1080" y="560" width="120" height="60" as="geometry" />
        </mxCell>
        <mxCell id="xFUgD21_2fmYF9zTELF0-8" value="" style="endArrow=classic;html=1;rounded=0;" edge="1" parent="1">
          <mxGeometry width="50" height="50" relative="1" as="geometry">
            <mxPoint x="-1020" y="510" as="sourcePoint" />
            <mxPoint x="-1020" y="560" as="targetPoint" />
          </mxGeometry>
        </mxCell>
        <mxCell id="xFUgD21_2fmYF9zTELF0-9" value="" style="endArrow=classic;html=1;rounded=0;" edge="1" parent="1">
          <mxGeometry width="50" height="50" relative="1" as="geometry">
            <mxPoint x="-650" y="510" as="sourcePoint" />
            <mxPoint x="-650" y="560" as="targetPoint" />
          </mxGeometry>
        </mxCell>
        <mxCell id="xFUgD21_2fmYF9zTELF0-10" value="Mani" style="rounded=0;whiteSpace=wrap;html=1;" vertex="1" parent="1">
          <mxGeometry x="-710" y="560" width="120" height="60" as="geometry" />
        </mxCell>
        <mxCell id="xFUgD21_2fmYF9zTELF0-11" value="" style="endArrow=none;html=1;rounded=0;exitX=1;exitY=0.5;exitDx=0;exitDy=0;" edge="1" parent="1" source="xFUgD21_2fmYF9zTELF0-7" target="xFUgD21_2fmYF9zTELF0-12">
          <mxGeometry width="50" height="50" relative="1" as="geometry">
            <mxPoint x="-630" y="490" as="sourcePoint" />
            <mxPoint x="-920" y="590" as="targetPoint" />
          </mxGeometry>
        </mxCell>
        <mxCell id="xFUgD21_2fmYF9zTELF0-12" value="akka" style="ellipse;whiteSpace=wrap;html=1;" vertex="1" parent="1">
          <mxGeometry x="-910" y="560" width="120" height="60" as="geometry" />
        </mxCell>
        <mxCell id="xFUgD21_2fmYF9zTELF0-15" value="" style="endArrow=none;html=1;rounded=0;exitX=1;exitY=0.5;exitDx=0;exitDy=0;" edge="1" parent="1" source="xFUgD21_2fmYF9zTELF0-10" target="xFUgD21_2fmYF9zTELF0-16">
          <mxGeometry width="50" height="50" relative="1" as="geometry">
            <mxPoint x="-630" y="490" as="sourcePoint" />
            <mxPoint x="-540" y="590" as="targetPoint" />
          </mxGeometry>
        </mxCell>
        <mxCell id="xFUgD21_2fmYF9zTELF0-16" value="akka" style="ellipse;whiteSpace=wrap;html=1;" vertex="1" parent="1">
          <mxGeometry x="-545" y="557.5" width="120" height="65" as="geometry" />
        </mxCell>
        <mxCell id="xFUgD21_2fmYF9zTELF0-17" value="" style="endArrow=classic;html=1;rounded=0;" edge="1" parent="1" target="xFUgD21_2fmYF9zTELF0-18">
          <mxGeometry width="50" height="50" relative="1" as="geometry">
            <mxPoint x="-938" y="589" as="sourcePoint" />
            <mxPoint x="-938" y="659" as="targetPoint" />
          </mxGeometry>
        </mxCell>
        <mxCell id="xFUgD21_2fmYF9zTELF0-18" value="Puppy" style="ellipse;whiteSpace=wrap;html=1;" vertex="1" parent="1">
          <mxGeometry x="-998" y="660" width="120" height="60" as="geometry" />
        </mxCell>
        <mxCell id="xFUgD21_2fmYF9zTELF0-19" value="" style="endArrow=none;html=1;rounded=0;" edge="1" parent="1">
          <mxGeometry width="50" height="50" relative="1" as="geometry">
            <mxPoint x="-998" y="689" as="sourcePoint" />
            <mxPoint x="-1078" y="689" as="targetPoint" />
          </mxGeometry>
        </mxCell>
        <mxCell id="xFUgD21_2fmYF9zTELF0-20" value="Puppy Husband" style="rounded=0;whiteSpace=wrap;html=1;" vertex="1" parent="1">
          <mxGeometry x="-1190" y="660" width="120" height="60" as="geometry" />
        </mxCell>
        <mxCell id="xFUgD21_2fmYF9zTELF0-21" value="" style="endArrow=classic;html=1;rounded=0;" edge="1" parent="1" target="xFUgD21_2fmYF9zTELF0-22">
          <mxGeometry width="50" height="50" relative="1" as="geometry">
            <mxPoint x="-568" y="589" as="sourcePoint" />
            <mxPoint x="-568" y="659" as="targetPoint" />
          </mxGeometry>
        </mxCell>
        <mxCell id="xFUgD21_2fmYF9zTELF0-22" value="Ponnu" style="ellipse;whiteSpace=wrap;html=1;" vertex="1" parent="1">
          <mxGeometry x="-628" y="650" width="120" height="60" as="geometry" />
        </mxCell>
        <mxCell id="xFUgD21_2fmYF9zTELF0-24" value="athai 2" style="ellipse;whiteSpace=wrap;html=1;" vertex="1" parent="1">
          <mxGeometry x="76" y="410" width="120" height="60" as="geometry" />
        </mxCell>
        <mxCell id="xFUgD21_2fmYF9zTELF0-25" value="" style="endArrow=none;html=1;rounded=0;entryX=0;entryY=0.5;entryDx=0;entryDy=0;" edge="1" parent="1" target="xFUgD21_2fmYF9zTELF0-24">
          <mxGeometry width="50" height="50" relative="1" as="geometry">
            <mxPoint x="26" y="440" as="sourcePoint" />
            <mxPoint x="306" y="440" as="targetPoint" />
          </mxGeometry>
        </mxCell>
        <mxCell id="xFUgD21_2fmYF9zTELF0-26" value="husband" style="rounded=0;whiteSpace=wrap;html=1;" vertex="1" parent="1">
          <mxGeometry x="-94" y="410" width="120" height="60" as="geometry" />
        </mxCell>
        <mxCell id="xFUgD21_2fmYF9zTELF0-27" value="" style="endArrow=none;html=1;rounded=0;" edge="1" parent="1">
          <mxGeometry width="50" height="50" relative="1" as="geometry">
            <mxPoint x="51" y="440" as="sourcePoint" />
            <mxPoint x="51" y="500" as="targetPoint" />
          </mxGeometry>
        </mxCell>
        <mxCell id="xFUgD21_2fmYF9zTELF0-28" value="" style="endArrow=none;html=1;rounded=0;" edge="1" parent="1">
          <mxGeometry width="50" height="50" relative="1" as="geometry">
            <mxPoint x="240" y="500" as="sourcePoint" />
            <mxPoint x="-150" y="500" as="targetPoint" />
          </mxGeometry>
        </mxCell>
        <mxCell id="xFUgD21_2fmYF9zTELF0-29" value="" style="endArrow=classic;html=1;rounded=0;" edge="1" parent="1">
          <mxGeometry width="50" height="50" relative="1" as="geometry">
            <mxPoint x="-150" y="499" as="sourcePoint" />
            <mxPoint x="-150" y="540" as="targetPoint" />
          </mxGeometry>
        </mxCell>
        <mxCell id="xFUgD21_2fmYF9zTELF0-30" value="" style="endArrow=classic;html=1;rounded=0;" edge="1" parent="1">
          <mxGeometry width="50" height="50" relative="1" as="geometry">
            <mxPoint x="240" y="500" as="sourcePoint" />
            <mxPoint x="240" y="540" as="targetPoint" />
          </mxGeometry>
        </mxCell>
        <mxCell id="xFUgD21_2fmYF9zTELF0-31" value="Jeeva" style="rounded=0;whiteSpace=wrap;html=1;" vertex="1" parent="1">
          <mxGeometry x="-210" y="540" width="120" height="60" as="geometry" />
        </mxCell>
        <mxCell id="xFUgD21_2fmYF9zTELF0-32" value="Giri" style="rounded=0;whiteSpace=wrap;html=1;" vertex="1" parent="1">
          <mxGeometry x="180" y="540" width="120" height="60" as="geometry" />
        </mxCell>
        <mxCell id="xFUgD21_2fmYF9zTELF0-33" value="" style="endArrow=none;html=1;rounded=0;exitX=1;exitY=0.5;exitDx=0;exitDy=0;" edge="1" parent="1" source="xFUgD21_2fmYF9zTELF0-31" target="xFUgD21_2fmYF9zTELF0-34">
          <mxGeometry width="50" height="50" relative="1" as="geometry">
            <mxPoint x="-200" y="490" as="sourcePoint" />
            <mxPoint x="-50" y="570" as="targetPoint" />
          </mxGeometry>
        </mxCell>
        <mxCell id="xFUgD21_2fmYF9zTELF0-34" value="wife" style="ellipse;whiteSpace=wrap;html=1;" vertex="1" parent="1">
          <mxGeometry x="-44" y="540" width="120" height="60" as="geometry" />
        </mxCell>
        <mxCell id="xFUgD21_2fmYF9zTELF0-35" value="wife" style="ellipse;whiteSpace=wrap;html=1;" vertex="1" parent="1">
          <mxGeometry x="350" y="540" width="120" height="60" as="geometry" />
        </mxCell>
        <mxCell id="xFUgD21_2fmYF9zTELF0-36" value="" style="endArrow=none;html=1;rounded=0;exitX=0;exitY=0.5;exitDx=0;exitDy=0;" edge="1" parent="1" source="xFUgD21_2fmYF9zTELF0-35" target="xFUgD21_2fmYF9zTELF0-32">
          <mxGeometry width="50" height="50" relative="1" as="geometry">
            <mxPoint x="80" y="490" as="sourcePoint" />
            <mxPoint x="130" y="440" as="targetPoint" />
          </mxGeometry>
        </mxCell>
        <mxCell id="xFUgD21_2fmYF9zTELF0-37" value="" style="endArrow=none;html=1;rounded=0;" edge="1" parent="1">
          <mxGeometry width="50" height="50" relative="1" as="geometry">
            <mxPoint x="-67" y="630" as="sourcePoint" />
            <mxPoint x="-67" y="570" as="targetPoint" />
          </mxGeometry>
        </mxCell>
        <mxCell id="xFUgD21_2fmYF9zTELF0-38" value="" style="endArrow=none;html=1;rounded=0;" edge="1" parent="1">
          <mxGeometry width="50" height="50" relative="1" as="geometry">
            <mxPoint x="-196" y="630" as="sourcePoint" />
            <mxPoint x="64" y="630" as="targetPoint" />
          </mxGeometry>
        </mxCell>
        <mxCell id="xFUgD21_2fmYF9zTELF0-39" value="" style="endArrow=classic;html=1;rounded=0;" edge="1" parent="1">
          <mxGeometry width="50" height="50" relative="1" as="geometry">
            <mxPoint x="-196" y="630" as="sourcePoint" />
            <mxPoint x="-196" y="670" as="targetPoint" />
          </mxGeometry>
        </mxCell>
        <mxCell id="xFUgD21_2fmYF9zTELF0-40" value="" style="endArrow=classic;html=1;rounded=0;" edge="1" parent="1">
          <mxGeometry width="50" height="50" relative="1" as="geometry">
            <mxPoint x="63" y="630" as="sourcePoint" />
            <mxPoint x="63" y="670" as="targetPoint" />
          </mxGeometry>
        </mxCell>
        <mxCell id="xFUgD21_2fmYF9zTELF0-41" value="D1" style="ellipse;whiteSpace=wrap;html=1;" vertex="1" parent="1">
          <mxGeometry x="-255" y="670" width="120" height="60" as="geometry" />
        </mxCell>
        <mxCell id="xFUgD21_2fmYF9zTELF0-42" value="D2" style="ellipse;whiteSpace=wrap;html=1;" vertex="1" parent="1">
          <mxGeometry x="3" y="670" width="120" height="60" as="geometry" />
        </mxCell>
        <mxCell id="xFUgD21_2fmYF9zTELF0-43" value="" style="endArrow=none;html=1;rounded=0;" edge="1" parent="1">
          <mxGeometry width="50" height="50" relative="1" as="geometry">
            <mxPoint x="330" y="570" as="sourcePoint" />
            <mxPoint x="330" y="620" as="targetPoint" />
          </mxGeometry>
        </mxCell>
        <mxCell id="xFUgD21_2fmYF9zTELF0-44" value="" style="endArrow=none;html=1;rounded=0;" edge="1" parent="1">
          <mxGeometry width="50" height="50" relative="1" as="geometry">
            <mxPoint x="470" y="620" as="sourcePoint" />
            <mxPoint x="200" y="620" as="targetPoint" />
          </mxGeometry>
        </mxCell>
        <mxCell id="xFUgD21_2fmYF9zTELF0-45" value="" style="endArrow=classic;html=1;rounded=0;" edge="1" parent="1">
          <mxGeometry width="50" height="50" relative="1" as="geometry">
            <mxPoint x="200" y="620" as="sourcePoint" />
            <mxPoint x="200" y="670" as="targetPoint" />
          </mxGeometry>
        </mxCell>
        <mxCell id="xFUgD21_2fmYF9zTELF0-46" value="" style="endArrow=classic;html=1;rounded=0;" edge="1" parent="1">
          <mxGeometry width="50" height="50" relative="1" as="geometry">
            <mxPoint x="470" y="620" as="sourcePoint" />
            <mxPoint x="470" y="670" as="targetPoint" />
          </mxGeometry>
        </mxCell>
        <mxCell id="xFUgD21_2fmYF9zTELF0-48" value="S2" style="rounded=0;whiteSpace=wrap;html=1;" vertex="1" parent="1">
          <mxGeometry x="410" y="670" width="120" height="60" as="geometry" />
        </mxCell>
        <mxCell id="xFUgD21_2fmYF9zTELF0-49" value="" style="endArrow=classic;html=1;rounded=0;" edge="1" parent="1">
          <mxGeometry width="50" height="50" relative="1" as="geometry">
            <mxPoint x="717" y="350" as="sourcePoint" />
            <mxPoint x="718" y="410" as="targetPoint" />
          </mxGeometry>
        </mxCell>
        <mxCell id="xFUgD21_2fmYF9zTELF0-50" value="" style="endArrow=classic;html=1;rounded=0;" edge="1" parent="1" target="xFUgD21_2fmYF9zTELF0-51">
          <mxGeometry width="50" height="50" relative="1" as="geometry">
            <mxPoint x="804" y="440" as="sourcePoint" />
            <mxPoint x="804" y="500" as="targetPoint" />
          </mxGeometry>
        </mxCell>
        <mxCell id="xFUgD21_2fmYF9zTELF0-51" value="Selvakumar" style="rounded=0;whiteSpace=wrap;html=1;" vertex="1" parent="1">
          <mxGeometry x="744" y="500" width="120" height="60" as="geometry" />
        </mxCell>
        <mxCell id="xFUgD21_2fmYF9zTELF0-52" value="Bharani" style="ellipse;whiteSpace=wrap;html=1;" vertex="1" parent="1">
          <mxGeometry x="909" y="500" width="120" height="60" as="geometry" />
        </mxCell>
        <mxCell id="xFUgD21_2fmYF9zTELF0-53" value="" style="endArrow=none;html=1;rounded=0;entryX=0;entryY=0.5;entryDx=0;entryDy=0;exitX=1;exitY=0.5;exitDx=0;exitDy=0;" edge="1" parent="1" source="xFUgD21_2fmYF9zTELF0-51" target="xFUgD21_2fmYF9zTELF0-52">
          <mxGeometry width="50" height="50" relative="1" as="geometry">
            <mxPoint x="579" y="590" as="sourcePoint" />
            <mxPoint x="629" y="540" as="targetPoint" />
          </mxGeometry>
        </mxCell>
        <mxCell id="xFUgD21_2fmYF9zTELF0-54" value="" style="endArrow=classic;html=1;rounded=0;" edge="1" parent="1" target="xFUgD21_2fmYF9zTELF0-55">
          <mxGeometry width="50" height="50" relative="1" as="geometry">
            <mxPoint x="889" y="530" as="sourcePoint" />
            <mxPoint x="889" y="590" as="targetPoint" />
          </mxGeometry>
        </mxCell>
        <mxCell id="xFUgD21_2fmYF9zTELF0-55" value="Samar" style="rounded=0;whiteSpace=wrap;html=1;" vertex="1" parent="1">
          <mxGeometry x="829" y="590" width="120" height="60" as="geometry" />
        </mxCell>
        <mxCell id="xFUgD21_2fmYF9zTELF0-56" value="" style="endArrow=classic;html=1;rounded=0;" edge="1" parent="1">
          <mxGeometry width="50" height="50" relative="1" as="geometry">
            <mxPoint x="1495" y="350" as="sourcePoint" />
            <mxPoint x="1495" y="410" as="targetPoint" />
          </mxGeometry>
        </mxCell>
        <mxCell id="xFUgD21_2fmYF9zTELF0-57" value="Athai" style="ellipse;whiteSpace=wrap;html=1;" vertex="1" parent="1">
          <mxGeometry x="1437" y="410" width="120" height="60" as="geometry" />
        </mxCell>
        <mxCell id="xFUgD21_2fmYF9zTELF0-58" value="Anthiyur mama" style="rounded=0;whiteSpace=wrap;html=1;" vertex="1" parent="1">
          <mxGeometry x="1275" y="410" width="120" height="60" as="geometry" />
        </mxCell>
        <mxCell id="xFUgD21_2fmYF9zTELF0-59" value="" style="endArrow=none;html=1;rounded=0;exitX=1;exitY=0.5;exitDx=0;exitDy=0;entryX=0;entryY=0.5;entryDx=0;entryDy=0;" edge="1" parent="1" source="xFUgD21_2fmYF9zTELF0-58" target="xFUgD21_2fmYF9zTELF0-57">
          <mxGeometry width="50" height="50" relative="1" as="geometry">
            <mxPoint x="1360" y="590" as="sourcePoint" />
            <mxPoint x="1410" y="540" as="targetPoint" />
          </mxGeometry>
        </mxCell>
        <mxCell id="xFUgD21_2fmYF9zTELF0-60" value="" style="endArrow=classic;html=1;rounded=0;" edge="1" parent="1">
          <mxGeometry width="50" height="50" relative="1" as="geometry">
            <mxPoint x="1418" y="440" as="sourcePoint" />
            <mxPoint x="1418" y="510" as="targetPoint" />
          </mxGeometry>
        </mxCell>
        <mxCell id="xFUgD21_2fmYF9zTELF0-62" value="Manju" style="ellipse;whiteSpace=wrap;html=1;" vertex="1" parent="1">
          <mxGeometry x="1360" y="510" width="120" height="60" as="geometry" />
        </mxCell>
        <mxCell id="xFUgD21_2fmYF9zTELF0-63" value="Manju Husband" style="rounded=0;whiteSpace=wrap;html=1;" vertex="1" parent="1">
          <mxGeometry x="1210" y="510" width="120" height="60" as="geometry" />
        </mxCell>
        <mxCell id="xFUgD21_2fmYF9zTELF0-64" value="" style="endArrow=none;html=1;rounded=0;exitX=1;exitY=0.5;exitDx=0;exitDy=0;" edge="1" parent="1" source="xFUgD21_2fmYF9zTELF0-63">
          <mxGeometry width="50" height="50" relative="1" as="geometry">
            <mxPoint x="1360" y="590" as="sourcePoint" />
            <mxPoint x="1360" y="540" as="targetPoint" />
          </mxGeometry>
        </mxCell>
        <mxCell id="xFUgD21_2fmYF9zTELF0-65" value="" style="endArrow=none;html=1;rounded=0;" edge="1" parent="1">
          <mxGeometry width="50" height="50" relative="1" as="geometry">
            <mxPoint x="1345" y="589" as="sourcePoint" />
            <mxPoint x="1345" y="539" as="targetPoint" />
          </mxGeometry>
        </mxCell>
        <mxCell id="xFUgD21_2fmYF9zTELF0-66" value="" style="endArrow=none;html=1;rounded=0;" edge="1" parent="1">
          <mxGeometry width="50" height="50" relative="1" as="geometry">
            <mxPoint x="1250" y="590" as="sourcePoint" />
            <mxPoint x="1440" y="590" as="targetPoint" />
          </mxGeometry>
        </mxCell>
        <mxCell id="xFUgD21_2fmYF9zTELF0-67" value="" style="endArrow=classic;html=1;rounded=0;" edge="1" parent="1">
          <mxGeometry width="50" height="50" relative="1" as="geometry">
            <mxPoint x="1250" y="590" as="sourcePoint" />
            <mxPoint x="1250" y="640" as="targetPoint" />
          </mxGeometry>
        </mxCell>
        <mxCell id="xFUgD21_2fmYF9zTELF0-68" value="" style="endArrow=classic;html=1;rounded=0;" edge="1" parent="1">
          <mxGeometry width="50" height="50" relative="1" as="geometry">
            <mxPoint x="1440" y="590" as="sourcePoint" />
            <mxPoint x="1440" y="640" as="targetPoint" />
          </mxGeometry>
        </mxCell>
        <mxCell id="xFUgD21_2fmYF9zTELF0-70" value="S1" style="rounded=0;whiteSpace=wrap;html=1;" vertex="1" parent="1">
          <mxGeometry x="140" y="670" width="120" height="60" as="geometry" />
        </mxCell>
        <mxCell id="xFUgD21_2fmYF9zTELF0-71" value="S1" style="rounded=0;whiteSpace=wrap;html=1;" vertex="1" parent="1">
          <mxGeometry x="1190" y="640" width="120" height="60" as="geometry" />
        </mxCell>
        <mxCell id="xFUgD21_2fmYF9zTELF0-72" value="S2" style="rounded=0;whiteSpace=wrap;html=1;" vertex="1" parent="1">
          <mxGeometry x="1380" y="640" width="120" height="60" as="geometry" />
        </mxCell>
        <mxCell id="xFUgD21_2fmYF9zTELF0-73" value="" style="endArrow=classic;html=1;rounded=0;" edge="1" parent="1">
          <mxGeometry width="50" height="50" relative="1" as="geometry">
            <mxPoint x="1860" y="350" as="sourcePoint" />
            <mxPoint x="1860" y="410" as="targetPoint" />
          </mxGeometry>
        </mxCell>
        <mxCell id="xFUgD21_2fmYF9zTELF0-74" value="Peripa" style="rounded=0;whiteSpace=wrap;html=1;" vertex="1" parent="1">
          <mxGeometry x="1800" y="410" width="120" height="60" as="geometry" />
        </mxCell>
        <mxCell id="xFUgD21_2fmYF9zTELF0-75" value="Perima" style="ellipse;whiteSpace=wrap;html=1;" vertex="1" parent="1">
          <mxGeometry x="1970" y="410" width="120" height="60" as="geometry" />
        </mxCell>
        <mxCell id="xFUgD21_2fmYF9zTELF0-76" value="" style="endArrow=none;html=1;rounded=0;exitX=0;exitY=0.5;exitDx=0;exitDy=0;entryX=1;entryY=0.5;entryDx=0;entryDy=0;" edge="1" parent="1" source="xFUgD21_2fmYF9zTELF0-75" target="xFUgD21_2fmYF9zTELF0-74">
          <mxGeometry width="50" height="50" relative="1" as="geometry">
            <mxPoint x="1490" y="590" as="sourcePoint" />
            <mxPoint x="1540" y="540" as="targetPoint" />
          </mxGeometry>
        </mxCell>
        <mxCell id="xFUgD21_2fmYF9zTELF0-77" value="" style="endArrow=classic;html=1;rounded=0;" edge="1" parent="1">
          <mxGeometry width="50" height="50" relative="1" as="geometry">
            <mxPoint x="1944" y="439" as="sourcePoint" />
            <mxPoint x="1944" y="509" as="targetPoint" />
          </mxGeometry>
        </mxCell>
        <mxCell id="xFUgD21_2fmYF9zTELF0-78" value="Ganapathy" style="rounded=0;whiteSpace=wrap;html=1;" vertex="1" parent="1">
          <mxGeometry x="1884" y="510" width="120" height="60" as="geometry" />
        </mxCell>
      </root>
    </mxGraphModel>
  </diagram>
  <diagram id="xxBJ-L2XfQx84YafR2hg" name="maniyaran thottam">
    <mxGraphModel dx="2950" dy="1114" grid="1" gridSize="10" guides="1" tooltips="1" connect="1" arrows="1" fold="1" page="1" pageScale="1" pageWidth="850" pageHeight="1100" math="0" shadow="0">
      <root>
        <mxCell id="0" />
        <mxCell id="1" parent="0" />
        <mxCell id="vpPiK3qxrBcelJ8cJoc4-1" value="Sellapan" style="rounded=0;whiteSpace=wrap;html=1;" parent="1" vertex="1">
          <mxGeometry x="881" y="124" width="120" height="60" as="geometry" />
        </mxCell>
        <mxCell id="vpPiK3qxrBcelJ8cJoc4-2" value="Maniyaran Thottam" style="text;html=1;align=center;verticalAlign=middle;whiteSpace=wrap;rounded=0;" parent="1" vertex="1">
          <mxGeometry x="911" y="94" width="60" height="30" as="geometry" />
        </mxCell>
        <mxCell id="vpPiK3qxrBcelJ8cJoc4-3" value="aatha" style="ellipse;whiteSpace=wrap;html=1;" parent="1" vertex="1">
          <mxGeometry x="1061" y="124" width="120" height="60" as="geometry" />
        </mxCell>
        <mxCell id="vpPiK3qxrBcelJ8cJoc4-4" value="" style="endArrow=none;html=1;rounded=0;exitX=1;exitY=0.5;exitDx=0;exitDy=0;entryX=0;entryY=0.5;entryDx=0;entryDy=0;" parent="1" source="vpPiK3qxrBcelJ8cJoc4-1" target="vpPiK3qxrBcelJ8cJoc4-3" edge="1">
          <mxGeometry width="50" height="50" relative="1" as="geometry">
            <mxPoint x="991" y="324" as="sourcePoint" />
            <mxPoint x="1041" y="274" as="targetPoint" />
          </mxGeometry>
        </mxCell>
        <mxCell id="vpPiK3qxrBcelJ8cJoc4-5" value="" style="endArrow=none;html=1;rounded=0;" parent="1" edge="1">
          <mxGeometry width="50" height="50" relative="1" as="geometry">
            <mxPoint x="1030" y="225" as="sourcePoint" />
            <mxPoint x="1030" y="155" as="targetPoint" />
          </mxGeometry>
        </mxCell>
        <mxCell id="vpPiK3qxrBcelJ8cJoc4-6" value="" style="endArrow=none;html=1;rounded=0;" parent="1" edge="1">
          <mxGeometry width="50" height="50" relative="1" as="geometry">
            <mxPoint x="80" y="220" as="sourcePoint" />
            <mxPoint x="1680" y="230" as="targetPoint" />
          </mxGeometry>
        </mxCell>
        <mxCell id="vpPiK3qxrBcelJ8cJoc4-7" value="" style="endArrow=classic;html=1;rounded=0;" parent="1" target="vpPiK3qxrBcelJ8cJoc4-8" edge="1">
          <mxGeometry width="50" height="50" relative="1" as="geometry">
            <mxPoint x="80" y="220" as="sourcePoint" />
            <mxPoint x="90" y="270" as="targetPoint" />
          </mxGeometry>
        </mxCell>
        <mxCell id="vpPiK3qxrBcelJ8cJoc4-8" value="Kumarasamy" style="rounded=0;whiteSpace=wrap;html=1;" parent="1" vertex="1">
          <mxGeometry x="19" y="260" width="120" height="60" as="geometry" />
        </mxCell>
        <mxCell id="vpPiK3qxrBcelJ8cJoc4-9" value="" style="endArrow=none;html=1;rounded=0;exitX=1;exitY=0.5;exitDx=0;exitDy=0;" parent="1" source="vpPiK3qxrBcelJ8cJoc4-8" target="vpPiK3qxrBcelJ8cJoc4-10" edge="1">
          <mxGeometry width="50" height="50" relative="1" as="geometry">
            <mxPoint x="389" y="320" as="sourcePoint" />
            <mxPoint x="189" y="290" as="targetPoint" />
          </mxGeometry>
        </mxCell>
        <mxCell id="vpPiK3qxrBcelJ8cJoc4-10" value="Kumarasamy Wife" style="ellipse;whiteSpace=wrap;html=1;" parent="1" vertex="1">
          <mxGeometry x="189" y="257.5" width="120" height="65" as="geometry" />
        </mxCell>
        <mxCell id="vpPiK3qxrBcelJ8cJoc4-12" value="" style="endArrow=none;html=1;rounded=0;" parent="1" edge="1">
          <mxGeometry width="50" height="50" relative="1" as="geometry">
            <mxPoint x="164" y="290" as="sourcePoint" />
            <mxPoint x="164" y="360" as="targetPoint" />
          </mxGeometry>
        </mxCell>
        <mxCell id="vpPiK3qxrBcelJ8cJoc4-13" value="" style="endArrow=none;html=1;rounded=0;" parent="1" edge="1">
          <mxGeometry width="50" height="50" relative="1" as="geometry">
            <mxPoint x="19" y="360" as="sourcePoint" />
            <mxPoint x="419" y="360" as="targetPoint" />
          </mxGeometry>
        </mxCell>
        <mxCell id="vpPiK3qxrBcelJ8cJoc4-17" value="" style="endArrow=classic;html=1;rounded=0;" parent="1" edge="1">
          <mxGeometry width="50" height="50" relative="1" as="geometry">
            <mxPoint x="19" y="360" as="sourcePoint" />
            <mxPoint x="19" y="410" as="targetPoint" />
          </mxGeometry>
        </mxCell>
        <mxCell id="vpPiK3qxrBcelJ8cJoc4-18" value="Sivakumar" style="rounded=0;whiteSpace=wrap;html=1;" parent="1" vertex="1">
          <mxGeometry x="-41" y="410" width="120" height="60" as="geometry" />
        </mxCell>
        <mxCell id="vpPiK3qxrBcelJ8cJoc4-19" value="Senthil Kumar" style="rounded=0;whiteSpace=wrap;html=1;" parent="1" vertex="1">
          <mxGeometry x="189" y="410" width="120" height="60" as="geometry" />
        </mxCell>
        <mxCell id="vpPiK3qxrBcelJ8cJoc4-20" value="Selvi" style="ellipse;whiteSpace=wrap;html=1;" parent="1" vertex="1">
          <mxGeometry x="359" y="410" width="120" height="60" as="geometry" />
        </mxCell>
        <mxCell id="vpPiK3qxrBcelJ8cJoc4-21" value="" style="endArrow=none;html=1;rounded=0;exitX=1;exitY=0.5;exitDx=0;exitDy=0;entryX=0;entryY=0.5;entryDx=0;entryDy=0;" parent="1" source="vpPiK3qxrBcelJ8cJoc4-19" target="vpPiK3qxrBcelJ8cJoc4-20" edge="1">
          <mxGeometry width="50" height="50" relative="1" as="geometry">
            <mxPoint x="389" y="320" as="sourcePoint" />
            <mxPoint x="439" y="270" as="targetPoint" />
          </mxGeometry>
        </mxCell>
        <mxCell id="vpPiK3qxrBcelJ8cJoc4-22" value="" style="endArrow=classic;html=1;rounded=0;entryX=0.5;entryY=0;entryDx=0;entryDy=0;" parent="1" edge="1">
          <mxGeometry width="50" height="50" relative="1" as="geometry">
            <mxPoint x="419" y="360" as="sourcePoint" />
            <mxPoint x="419" y="410" as="targetPoint" />
          </mxGeometry>
        </mxCell>
        <mxCell id="vpPiK3qxrBcelJ8cJoc4-23" value="" style="endArrow=none;html=1;rounded=0;" parent="1" edge="1">
          <mxGeometry width="50" height="50" relative="1" as="geometry">
            <mxPoint x="339" y="510" as="sourcePoint" />
            <mxPoint x="339" y="440" as="targetPoint" />
          </mxGeometry>
        </mxCell>
        <mxCell id="vpPiK3qxrBcelJ8cJoc4-24" value="" style="endArrow=none;html=1;rounded=0;" parent="1" edge="1">
          <mxGeometry width="50" height="50" relative="1" as="geometry">
            <mxPoint x="245" y="510" as="sourcePoint" />
            <mxPoint x="435" y="510" as="targetPoint" />
          </mxGeometry>
        </mxCell>
        <mxCell id="vpPiK3qxrBcelJ8cJoc4-25" value="" style="endArrow=classic;html=1;rounded=0;" parent="1" edge="1">
          <mxGeometry width="50" height="50" relative="1" as="geometry">
            <mxPoint x="245" y="510" as="sourcePoint" />
            <mxPoint x="245" y="550" as="targetPoint" />
          </mxGeometry>
        </mxCell>
        <mxCell id="vpPiK3qxrBcelJ8cJoc4-26" value="" style="endArrow=classic;html=1;rounded=0;" parent="1" edge="1">
          <mxGeometry width="50" height="50" relative="1" as="geometry">
            <mxPoint x="434" y="510" as="sourcePoint" />
            <mxPoint x="434" y="550" as="targetPoint" />
          </mxGeometry>
        </mxCell>
        <mxCell id="vpPiK3qxrBcelJ8cJoc4-27" value="Piyan 2" style="rounded=0;whiteSpace=wrap;html=1;" parent="1" vertex="1">
          <mxGeometry x="375" y="550" width="120" height="60" as="geometry" />
        </mxCell>
        <mxCell id="vpPiK3qxrBcelJ8cJoc4-28" value="Piyan 1" style="rounded=0;whiteSpace=wrap;html=1;" parent="1" vertex="1">
          <mxGeometry x="186" y="550" width="120" height="60" as="geometry" />
        </mxCell>
        <mxCell id="vpPiK3qxrBcelJ8cJoc4-29" value="Veeratha" style="ellipse;whiteSpace=wrap;html=1;" parent="1" vertex="1">
          <mxGeometry x="1010" y="275" width="120" height="70" as="geometry" />
        </mxCell>
        <mxCell id="vpPiK3qxrBcelJ8cJoc4-30" value="Thirukovilur" style="rounded=0;whiteSpace=wrap;html=1;" parent="1" vertex="1">
          <mxGeometry x="830" y="280" width="120" height="60" as="geometry" />
        </mxCell>
        <mxCell id="vpPiK3qxrBcelJ8cJoc4-31" value="" style="endArrow=none;html=1;rounded=0;exitX=1;exitY=0.5;exitDx=0;exitDy=0;entryX=0;entryY=0.5;entryDx=0;entryDy=0;" parent="1" source="vpPiK3qxrBcelJ8cJoc4-30" target="vpPiK3qxrBcelJ8cJoc4-29" edge="1">
          <mxGeometry width="50" height="50" relative="1" as="geometry">
            <mxPoint x="880" y="420" as="sourcePoint" />
            <mxPoint x="930" y="370" as="targetPoint" />
          </mxGeometry>
        </mxCell>
        <mxCell id="vpPiK3qxrBcelJ8cJoc4-32" value="" style="endArrow=classic;html=1;rounded=0;" parent="1" edge="1">
          <mxGeometry width="50" height="50" relative="1" as="geometry">
            <mxPoint x="1070" y="230" as="sourcePoint" />
            <mxPoint x="1070" y="275" as="targetPoint" />
          </mxGeometry>
        </mxCell>
        <mxCell id="vpPiK3qxrBcelJ8cJoc4-33" value="" style="endArrow=none;html=1;rounded=0;" parent="1" edge="1">
          <mxGeometry width="50" height="50" relative="1" as="geometry">
            <mxPoint x="980" y="370" as="sourcePoint" />
            <mxPoint x="980" y="310" as="targetPoint" />
          </mxGeometry>
        </mxCell>
        <mxCell id="vpPiK3qxrBcelJ8cJoc4-34" value="" style="endArrow=none;html=1;rounded=0;" parent="1" edge="1">
          <mxGeometry width="50" height="50" relative="1" as="geometry">
            <mxPoint x="850" y="370" as="sourcePoint" />
            <mxPoint x="1120" y="370" as="targetPoint" />
          </mxGeometry>
        </mxCell>
        <mxCell id="vpPiK3qxrBcelJ8cJoc4-35" value="" style="endArrow=classic;html=1;rounded=0;" parent="1" edge="1">
          <mxGeometry width="50" height="50" relative="1" as="geometry">
            <mxPoint x="852" y="370" as="sourcePoint" />
            <mxPoint x="852" y="420" as="targetPoint" />
          </mxGeometry>
        </mxCell>
        <mxCell id="vpPiK3qxrBcelJ8cJoc4-36" value="" style="endArrow=classic;html=1;rounded=0;" parent="1" edge="1">
          <mxGeometry width="50" height="50" relative="1" as="geometry">
            <mxPoint x="1120" y="370" as="sourcePoint" />
            <mxPoint x="1120" y="420" as="targetPoint" />
          </mxGeometry>
        </mxCell>
        <mxCell id="vpPiK3qxrBcelJ8cJoc4-37" value="Senthil" style="rounded=0;whiteSpace=wrap;html=1;" parent="1" vertex="1">
          <mxGeometry x="1060" y="420" width="120" height="60" as="geometry" />
        </mxCell>
        <mxCell id="vpPiK3qxrBcelJ8cJoc4-38" value="Ramya" style="ellipse;whiteSpace=wrap;html=1;" parent="1" vertex="1">
          <mxGeometry x="1230" y="420" width="120" height="60" as="geometry" />
        </mxCell>
        <mxCell id="vpPiK3qxrBcelJ8cJoc4-39" value="" style="endArrow=none;html=1;rounded=0;entryX=0;entryY=0.5;entryDx=0;entryDy=0;exitX=1;exitY=0.5;exitDx=0;exitDy=0;" parent="1" source="vpPiK3qxrBcelJ8cJoc4-37" target="vpPiK3qxrBcelJ8cJoc4-38" edge="1">
          <mxGeometry width="50" height="50" relative="1" as="geometry">
            <mxPoint x="1090" y="420" as="sourcePoint" />
            <mxPoint x="1140" y="370" as="targetPoint" />
          </mxGeometry>
        </mxCell>
        <mxCell id="vpPiK3qxrBcelJ8cJoc4-40" value="" style="endArrow=classic;html=1;rounded=0;" parent="1" target="vpPiK3qxrBcelJ8cJoc4-41" edge="1">
          <mxGeometry width="50" height="50" relative="1" as="geometry">
            <mxPoint x="1207" y="450" as="sourcePoint" />
            <mxPoint x="1207" y="520" as="targetPoint" />
          </mxGeometry>
        </mxCell>
        <mxCell id="vpPiK3qxrBcelJ8cJoc4-41" value="Piyan" style="rounded=0;whiteSpace=wrap;html=1;" parent="1" vertex="1">
          <mxGeometry x="1147" y="510" width="120" height="60" as="geometry" />
        </mxCell>
        <mxCell id="vpPiK3qxrBcelJ8cJoc4-42" value="Uma" style="ellipse;whiteSpace=wrap;html=1;" parent="1" vertex="1">
          <mxGeometry x="792" y="420" width="120" height="70" as="geometry" />
        </mxCell>
        <mxCell id="vpPiK3qxrBcelJ8cJoc4-43" value="Saravana Kumar" style="rounded=0;whiteSpace=wrap;html=1;" parent="1" vertex="1">
          <mxGeometry x="632" y="425" width="120" height="60" as="geometry" />
        </mxCell>
        <mxCell id="vpPiK3qxrBcelJ8cJoc4-44" value="" style="endArrow=none;html=1;rounded=0;exitX=1;exitY=0.5;exitDx=0;exitDy=0;entryX=0;entryY=0.5;entryDx=0;entryDy=0;" parent="1" source="vpPiK3qxrBcelJ8cJoc4-43" target="vpPiK3qxrBcelJ8cJoc4-42" edge="1">
          <mxGeometry width="50" height="50" relative="1" as="geometry">
            <mxPoint x="760" y="620" as="sourcePoint" />
            <mxPoint x="810" y="570" as="targetPoint" />
          </mxGeometry>
        </mxCell>
        <mxCell id="vpPiK3qxrBcelJ8cJoc4-46" value="" style="endArrow=classic;html=1;rounded=0;" parent="1" edge="1">
          <mxGeometry width="50" height="50" relative="1" as="geometry">
            <mxPoint x="772" y="455" as="sourcePoint" />
            <mxPoint x="772" y="525" as="targetPoint" />
          </mxGeometry>
        </mxCell>
        <mxCell id="vpPiK3qxrBcelJ8cJoc4-47" value="Udith" style="rounded=0;whiteSpace=wrap;html=1;" parent="1" vertex="1">
          <mxGeometry x="713" y="526" width="120" height="60" as="geometry" />
        </mxCell>
        <mxCell id="vpPiK3qxrBcelJ8cJoc4-49" value="" style="endArrow=classic;html=1;rounded=0;" parent="1" target="vpPiK3qxrBcelJ8cJoc4-50" edge="1">
          <mxGeometry width="50" height="50" relative="1" as="geometry">
            <mxPoint x="1680" y="230" as="sourcePoint" />
            <mxPoint x="1680" y="270" as="targetPoint" />
          </mxGeometry>
        </mxCell>
        <mxCell id="vpPiK3qxrBcelJ8cJoc4-50" value="Veera Rasu" style="rounded=0;whiteSpace=wrap;html=1;" parent="1" vertex="1">
          <mxGeometry x="1620" y="275" width="120" height="60" as="geometry" />
        </mxCell>
        <mxCell id="vpPiK3qxrBcelJ8cJoc4-51" value="Lakshmi" style="ellipse;whiteSpace=wrap;html=1;" parent="1" vertex="1">
          <mxGeometry x="1790" y="272.5" width="120" height="65" as="geometry" />
        </mxCell>
        <mxCell id="vpPiK3qxrBcelJ8cJoc4-52" value="" style="endArrow=none;html=1;rounded=0;exitX=0;exitY=0.5;exitDx=0;exitDy=0;entryX=1;entryY=0.5;entryDx=0;entryDy=0;" parent="1" source="vpPiK3qxrBcelJ8cJoc4-51" target="vpPiK3qxrBcelJ8cJoc4-50" edge="1">
          <mxGeometry width="50" height="50" relative="1" as="geometry">
            <mxPoint x="1390" y="520" as="sourcePoint" />
            <mxPoint x="1440" y="470" as="targetPoint" />
          </mxGeometry>
        </mxCell>
        <mxCell id="vpPiK3qxrBcelJ8cJoc4-53" value="" style="endArrow=none;html=1;rounded=0;" parent="1" edge="1">
          <mxGeometry width="50" height="50" relative="1" as="geometry">
            <mxPoint x="1767" y="375" as="sourcePoint" />
            <mxPoint x="1767" y="305" as="targetPoint" />
          </mxGeometry>
        </mxCell>
        <mxCell id="vpPiK3qxrBcelJ8cJoc4-54" value="" style="endArrow=none;html=1;rounded=0;" parent="1" edge="1">
          <mxGeometry width="50" height="50" relative="1" as="geometry">
            <mxPoint x="1680" y="376" as="sourcePoint" />
            <mxPoint x="1882" y="376" as="targetPoint" />
          </mxGeometry>
        </mxCell>
        <mxCell id="vpPiK3qxrBcelJ8cJoc4-55" value="" style="endArrow=classic;html=1;rounded=0;" parent="1" edge="1">
          <mxGeometry width="50" height="50" relative="1" as="geometry">
            <mxPoint x="1680" y="375" as="sourcePoint" />
            <mxPoint x="1680" y="415" as="targetPoint" />
          </mxGeometry>
        </mxCell>
        <mxCell id="vpPiK3qxrBcelJ8cJoc4-57" value="Siva Ranjani" style="ellipse;whiteSpace=wrap;html=1;" parent="1" vertex="1">
          <mxGeometry x="1621" y="416" width="120" height="60" as="geometry" />
        </mxCell>
        <mxCell id="vpPiK3qxrBcelJ8cJoc4-58" value="" style="endArrow=classic;html=1;rounded=0;" parent="1" target="vpPiK3qxrBcelJ8cJoc4-59" edge="1">
          <mxGeometry width="50" height="50" relative="1" as="geometry">
            <mxPoint x="1882" y="376" as="sourcePoint" />
            <mxPoint x="1882" y="416" as="targetPoint" />
          </mxGeometry>
        </mxCell>
        <mxCell id="vpPiK3qxrBcelJ8cJoc4-59" value="Karthi" style="rounded=0;whiteSpace=wrap;html=1;" parent="1" vertex="1">
          <mxGeometry x="1822" y="416" width="120" height="60" as="geometry" />
        </mxCell>
        <mxCell id="vpPiK3qxrBcelJ8cJoc4-60" value="Prabaharan" style="rounded=0;whiteSpace=wrap;html=1;" parent="1" vertex="1">
          <mxGeometry x="1460" y="416" width="120" height="60" as="geometry" />
        </mxCell>
        <mxCell id="vpPiK3qxrBcelJ8cJoc4-61" value="" style="endArrow=none;html=1;rounded=0;exitX=1;exitY=0.5;exitDx=0;exitDy=0;entryX=0;entryY=0.5;entryDx=0;entryDy=0;" parent="1" source="vpPiK3qxrBcelJ8cJoc4-60" target="vpPiK3qxrBcelJ8cJoc4-57" edge="1">
          <mxGeometry width="50" height="50" relative="1" as="geometry">
            <mxPoint x="1620" y="520" as="sourcePoint" />
            <mxPoint x="1670" y="470" as="targetPoint" />
          </mxGeometry>
        </mxCell>
        <mxCell id="vpPiK3qxrBcelJ8cJoc4-63" value="" style="endArrow=classic;html=1;rounded=0;" parent="1" edge="1">
          <mxGeometry width="50" height="50" relative="1" as="geometry">
            <mxPoint x="1600" y="446" as="sourcePoint" />
            <mxPoint x="1600" y="510" as="targetPoint" />
          </mxGeometry>
        </mxCell>
        <mxCell id="vpPiK3qxrBcelJ8cJoc4-65" value="Akshitha" style="ellipse;whiteSpace=wrap;html=1;" parent="1" vertex="1">
          <mxGeometry x="1540" y="510" width="120" height="60" as="geometry" />
        </mxCell>
      </root>
    </mxGraphModel>
  </diagram>
  <diagram id="KoxSaIQWJZ4945UT-B7j" name="puthuveedu">
    <mxGraphModel dx="2744" dy="1114" grid="1" gridSize="10" guides="1" tooltips="1" connect="1" arrows="1" fold="1" page="1" pageScale="1" pageWidth="850" pageHeight="1100" math="0" shadow="0">
      <root>
        <mxCell id="0" />
        <mxCell id="1" parent="0" />
        <mxCell id="XtRjt4zz3ca8qq1cEHKN-1" value="Palanisamy" style="rounded=0;whiteSpace=wrap;html=1;strokeColor=default;" vertex="1" parent="1">
          <mxGeometry x="599" y="280" width="120" height="60" as="geometry" />
        </mxCell>
        <mxCell id="XtRjt4zz3ca8qq1cEHKN-2" value="Valliammal" style="ellipse;whiteSpace=wrap;html=1;" vertex="1" parent="1">
          <mxGeometry x="759" y="275" width="115" height="70" as="geometry" />
        </mxCell>
        <mxCell id="XtRjt4zz3ca8qq1cEHKN-3" value="" style="endArrow=none;html=1;rounded=0;exitX=1;exitY=0.5;exitDx=0;exitDy=0;entryX=0;entryY=0.5;entryDx=0;entryDy=0;" edge="1" parent="1" source="XtRjt4zz3ca8qq1cEHKN-1" target="XtRjt4zz3ca8qq1cEHKN-2">
          <mxGeometry width="50" height="50" relative="1" as="geometry">
            <mxPoint x="739" y="490" as="sourcePoint" />
            <mxPoint x="789" y="440" as="targetPoint" />
          </mxGeometry>
        </mxCell>
        <mxCell id="XtRjt4zz3ca8qq1cEHKN-4" value="" style="endArrow=none;html=1;rounded=0;" edge="1" parent="1">
          <mxGeometry width="50" height="50" relative="1" as="geometry">
            <mxPoint x="742" y="410" as="sourcePoint" />
            <mxPoint x="742" y="310" as="targetPoint" />
          </mxGeometry>
        </mxCell>
        <mxCell id="XtRjt4zz3ca8qq1cEHKN-5" value="" style="endArrow=none;html=1;rounded=0;" edge="1" parent="1">
          <mxGeometry width="50" height="50" relative="1" as="geometry">
            <mxPoint x="-160" y="410" as="sourcePoint" />
            <mxPoint x="1550" y="410" as="targetPoint" />
          </mxGeometry>
        </mxCell>
        <mxCell id="XtRjt4zz3ca8qq1cEHKN-6" value="" style="endArrow=classic;html=1;rounded=0;" edge="1" parent="1">
          <mxGeometry width="50" height="50" relative="1" as="geometry">
            <mxPoint x="-160" y="410" as="sourcePoint" />
            <mxPoint x="-160.5" y="505" as="targetPoint" />
          </mxGeometry>
        </mxCell>
        <mxCell id="XtRjt4zz3ca8qq1cEHKN-7" value="" style="endArrow=classic;html=1;rounded=0;entryX=0.5;entryY=0;entryDx=0;entryDy=0;" edge="1" parent="1" target="XtRjt4zz3ca8qq1cEHKN-15">
          <mxGeometry width="50" height="50" relative="1" as="geometry">
            <mxPoint x="219.5" y="410" as="sourcePoint" />
            <mxPoint x="219.5" y="500" as="targetPoint" />
          </mxGeometry>
        </mxCell>
        <mxCell id="XtRjt4zz3ca8qq1cEHKN-8" value="" style="endArrow=classic;html=1;rounded=0;" edge="1" parent="1">
          <mxGeometry width="50" height="50" relative="1" as="geometry">
            <mxPoint x="1114" y="410" as="sourcePoint" />
            <mxPoint x="1114" y="500" as="targetPoint" />
            <Array as="points">
              <mxPoint x="1114" y="450" />
            </Array>
          </mxGeometry>
        </mxCell>
        <mxCell id="XtRjt4zz3ca8qq1cEHKN-9" value="" style="endArrow=classic;html=1;rounded=0;" edge="1" parent="1">
          <mxGeometry width="50" height="50" relative="1" as="geometry">
            <mxPoint x="1549" y="410" as="sourcePoint" />
            <mxPoint x="1549" y="500" as="targetPoint" />
          </mxGeometry>
        </mxCell>
        <mxCell id="XtRjt4zz3ca8qq1cEHKN-10" value="Kuppusamy" style="rounded=0;whiteSpace=wrap;html=1;strokeColor=default;" vertex="1" parent="1">
          <mxGeometry x="-220" y="505" width="120" height="60" as="geometry" />
        </mxCell>
        <mxCell id="XtRjt4zz3ca8qq1cEHKN-11" value="Eswari" style="ellipse;whiteSpace=wrap;html=1;" vertex="1" parent="1">
          <mxGeometry x="-60" y="500" width="115" height="70" as="geometry" />
        </mxCell>
        <mxCell id="XtRjt4zz3ca8qq1cEHKN-12" value="" style="endArrow=none;html=1;rounded=0;exitX=1;exitY=0.5;exitDx=0;exitDy=0;entryX=0;entryY=0.5;entryDx=0;entryDy=0;" edge="1" parent="1" source="XtRjt4zz3ca8qq1cEHKN-10" target="XtRjt4zz3ca8qq1cEHKN-11">
          <mxGeometry width="50" height="50" relative="1" as="geometry">
            <mxPoint x="-80" y="715" as="sourcePoint" />
            <mxPoint x="-30" y="665" as="targetPoint" />
          </mxGeometry>
        </mxCell>
        <mxCell id="XtRjt4zz3ca8qq1cEHKN-13" value="" style="endArrow=classic;html=1;rounded=0;" edge="1" parent="1">
          <mxGeometry width="50" height="50" relative="1" as="geometry">
            <mxPoint x="-80" y="535" as="sourcePoint" />
            <mxPoint x="-80" y="615" as="targetPoint" />
          </mxGeometry>
        </mxCell>
        <mxCell id="XtRjt4zz3ca8qq1cEHKN-14" value="Sangeeth" style="rounded=0;whiteSpace=wrap;html=1;" vertex="1" parent="1">
          <mxGeometry x="-140" y="620" width="120" height="60" as="geometry" />
        </mxCell>
        <mxCell id="XtRjt4zz3ca8qq1cEHKN-15" value="Sellamuthu" style="rounded=0;whiteSpace=wrap;html=1;strokeColor=default;" vertex="1" parent="1">
          <mxGeometry x="160" y="505" width="120" height="60" as="geometry" />
        </mxCell>
        <mxCell id="XtRjt4zz3ca8qq1cEHKN-16" value="Pooranam" style="ellipse;whiteSpace=wrap;html=1;" vertex="1" parent="1">
          <mxGeometry x="320" y="500" width="115" height="70" as="geometry" />
        </mxCell>
        <mxCell id="XtRjt4zz3ca8qq1cEHKN-17" value="" style="endArrow=none;html=1;rounded=0;exitX=1;exitY=0.5;exitDx=0;exitDy=0;entryX=0;entryY=0.5;entryDx=0;entryDy=0;" edge="1" parent="1" source="XtRjt4zz3ca8qq1cEHKN-15" target="XtRjt4zz3ca8qq1cEHKN-16">
          <mxGeometry width="50" height="50" relative="1" as="geometry">
            <mxPoint x="300" y="715" as="sourcePoint" />
            <mxPoint x="350" y="665" as="targetPoint" />
          </mxGeometry>
        </mxCell>
        <mxCell id="XtRjt4zz3ca8qq1cEHKN-18" value="" style="endArrow=classic;html=1;rounded=0;" edge="1" parent="1">
          <mxGeometry width="50" height="50" relative="1" as="geometry">
            <mxPoint x="159" y="590" as="sourcePoint" />
            <mxPoint x="159" y="624" as="targetPoint" />
            <Array as="points">
              <mxPoint x="159" y="604" />
            </Array>
          </mxGeometry>
        </mxCell>
        <mxCell id="XtRjt4zz3ca8qq1cEHKN-19" value="" style="endArrow=none;html=1;rounded=0;" edge="1" parent="1">
          <mxGeometry width="50" height="50" relative="1" as="geometry">
            <mxPoint x="300" y="535" as="sourcePoint" />
            <mxPoint x="300" y="590" as="targetPoint" />
          </mxGeometry>
        </mxCell>
        <mxCell id="XtRjt4zz3ca8qq1cEHKN-20" value="" style="endArrow=none;html=1;rounded=0;" edge="1" parent="1">
          <mxGeometry width="50" height="50" relative="1" as="geometry">
            <mxPoint x="160" y="590" as="sourcePoint" />
            <mxPoint x="470" y="590" as="targetPoint" />
          </mxGeometry>
        </mxCell>
        <mxCell id="XtRjt4zz3ca8qq1cEHKN-21" value="" style="endArrow=classic;html=1;rounded=0;" edge="1" parent="1">
          <mxGeometry width="50" height="50" relative="1" as="geometry">
            <mxPoint x="470" y="590" as="sourcePoint" />
            <mxPoint x="470" y="630" as="targetPoint" />
          </mxGeometry>
        </mxCell>
        <mxCell id="XtRjt4zz3ca8qq1cEHKN-22" value="Ajithkumar" style="rounded=0;whiteSpace=wrap;html=1;strokeColor=default;" vertex="1" parent="1">
          <mxGeometry x="100" y="625" width="120" height="60" as="geometry" />
        </mxCell>
        <mxCell id="XtRjt4zz3ca8qq1cEHKN-23" value="Swetha" style="ellipse;whiteSpace=wrap;html=1;" vertex="1" parent="1">
          <mxGeometry x="260" y="620" width="115" height="70" as="geometry" />
        </mxCell>
        <mxCell id="XtRjt4zz3ca8qq1cEHKN-24" value="" style="endArrow=none;html=1;rounded=0;exitX=1;exitY=0.5;exitDx=0;exitDy=0;entryX=0;entryY=0.5;entryDx=0;entryDy=0;" edge="1" parent="1" source="XtRjt4zz3ca8qq1cEHKN-22" target="XtRjt4zz3ca8qq1cEHKN-23">
          <mxGeometry width="50" height="50" relative="1" as="geometry">
            <mxPoint x="240" y="835" as="sourcePoint" />
            <mxPoint x="290" y="785" as="targetPoint" />
          </mxGeometry>
        </mxCell>
        <mxCell id="XtRjt4zz3ca8qq1cEHKN-28" value="" style="endArrow=classic;html=1;rounded=0;" edge="1" parent="1">
          <mxGeometry width="50" height="50" relative="1" as="geometry">
            <mxPoint x="240" y="655" as="sourcePoint" />
            <mxPoint x="240" y="735" as="targetPoint" />
          </mxGeometry>
        </mxCell>
        <mxCell id="XtRjt4zz3ca8qq1cEHKN-29" value="Aadvik" style="rounded=0;whiteSpace=wrap;html=1;" vertex="1" parent="1">
          <mxGeometry x="180" y="736" width="120" height="60" as="geometry" />
        </mxCell>
        <mxCell id="XtRjt4zz3ca8qq1cEHKN-31" value="Surenkumar" style="rounded=0;whiteSpace=wrap;html=1;" vertex="1" parent="1">
          <mxGeometry x="410" y="630" width="120" height="60" as="geometry" />
        </mxCell>
        <mxCell id="XtRjt4zz3ca8qq1cEHKN-32" value="Gunasekaran" style="rounded=0;whiteSpace=wrap;html=1;strokeColor=default;" vertex="1" parent="1">
          <mxGeometry x="899" y="505" width="120" height="60" as="geometry" />
        </mxCell>
        <mxCell id="XtRjt4zz3ca8qq1cEHKN-33" value="Muthulakshmi" style="ellipse;whiteSpace=wrap;html=1;" vertex="1" parent="1">
          <mxGeometry x="1056" y="500" width="115" height="70" as="geometry" />
        </mxCell>
        <mxCell id="XtRjt4zz3ca8qq1cEHKN-34" value="" style="endArrow=none;html=1;rounded=0;exitX=1;exitY=0.5;exitDx=0;exitDy=0;entryX=0;entryY=0.5;entryDx=0;entryDy=0;" edge="1" parent="1" source="XtRjt4zz3ca8qq1cEHKN-32" target="XtRjt4zz3ca8qq1cEHKN-33">
          <mxGeometry width="50" height="50" relative="1" as="geometry">
            <mxPoint x="1039" y="715" as="sourcePoint" />
            <mxPoint x="1089" y="665" as="targetPoint" />
          </mxGeometry>
        </mxCell>
        <mxCell id="XtRjt4zz3ca8qq1cEHKN-35" value="" style="endArrow=none;html=1;rounded=0;" edge="1" parent="1">
          <mxGeometry width="50" height="50" relative="1" as="geometry">
            <mxPoint x="1039" y="590" as="sourcePoint" />
            <mxPoint x="1039" y="535" as="targetPoint" />
          </mxGeometry>
        </mxCell>
        <mxCell id="XtRjt4zz3ca8qq1cEHKN-36" value="" style="endArrow=none;html=1;rounded=0;" edge="1" parent="1">
          <mxGeometry width="50" height="50" relative="1" as="geometry">
            <mxPoint x="899" y="589" as="sourcePoint" />
            <mxPoint x="1179" y="589" as="targetPoint" />
          </mxGeometry>
        </mxCell>
        <mxCell id="XtRjt4zz3ca8qq1cEHKN-37" value="" style="endArrow=classic;html=1;rounded=0;" edge="1" parent="1">
          <mxGeometry width="50" height="50" relative="1" as="geometry">
            <mxPoint x="899" y="590" as="sourcePoint" />
            <mxPoint x="899" y="630" as="targetPoint" />
          </mxGeometry>
        </mxCell>
        <mxCell id="XtRjt4zz3ca8qq1cEHKN-38" value="" style="endArrow=classic;html=1;rounded=0;" edge="1" parent="1">
          <mxGeometry width="50" height="50" relative="1" as="geometry">
            <mxPoint x="1179" y="589" as="sourcePoint" />
            <mxPoint x="1179" y="629" as="targetPoint" />
          </mxGeometry>
        </mxCell>
        <mxCell id="XtRjt4zz3ca8qq1cEHKN-40" value="Selvakumar" style="rounded=0;whiteSpace=wrap;html=1;strokeColor=default;" vertex="1" parent="1">
          <mxGeometry x="690" y="635" width="120" height="60" as="geometry" />
        </mxCell>
        <mxCell id="XtRjt4zz3ca8qq1cEHKN-41" value="JayaBrindha" style="ellipse;whiteSpace=wrap;html=1;" vertex="1" parent="1">
          <mxGeometry x="850" y="630" width="115" height="70" as="geometry" />
        </mxCell>
        <mxCell id="XtRjt4zz3ca8qq1cEHKN-42" value="" style="endArrow=none;html=1;rounded=0;exitX=1;exitY=0.5;exitDx=0;exitDy=0;entryX=0;entryY=0.5;entryDx=0;entryDy=0;" edge="1" parent="1" source="XtRjt4zz3ca8qq1cEHKN-40" target="XtRjt4zz3ca8qq1cEHKN-41">
          <mxGeometry width="50" height="50" relative="1" as="geometry">
            <mxPoint x="830" y="845" as="sourcePoint" />
            <mxPoint x="880" y="795" as="targetPoint" />
          </mxGeometry>
        </mxCell>
        <mxCell id="XtRjt4zz3ca8qq1cEHKN-43" value="" style="endArrow=classic;html=1;rounded=0;" edge="1" parent="1">
          <mxGeometry width="50" height="50" relative="1" as="geometry">
            <mxPoint x="831" y="666" as="sourcePoint" />
            <mxPoint x="831" y="716" as="targetPoint" />
          </mxGeometry>
        </mxCell>
        <mxCell id="XtRjt4zz3ca8qq1cEHKN-44" value="Rudhiv Krishna" style="rounded=0;whiteSpace=wrap;html=1;" vertex="1" parent="1">
          <mxGeometry x="770" y="720" width="120" height="60" as="geometry" />
        </mxCell>
        <mxCell id="XtRjt4zz3ca8qq1cEHKN-45" value="Praveen" style="rounded=0;whiteSpace=wrap;html=1;" vertex="1" parent="1">
          <mxGeometry x="1119" y="631" width="120" height="60" as="geometry" />
        </mxCell>
        <mxCell id="XtRjt4zz3ca8qq1cEHKN-46" value="Puthuveedu" style="text;html=1;align=center;verticalAlign=middle;whiteSpace=wrap;rounded=0;" vertex="1" parent="1">
          <mxGeometry x="629" y="250" width="60" height="30" as="geometry" />
        </mxCell>
        <mxCell id="XtRjt4zz3ca8qq1cEHKN-50" value="Muthusamy" style="rounded=0;whiteSpace=wrap;html=1;strokeColor=default;" vertex="1" parent="1">
          <mxGeometry x="1490" y="500" width="120" height="60" as="geometry" />
        </mxCell>
        <mxCell id="XtRjt4zz3ca8qq1cEHKN-51" value="Jayanthi" style="ellipse;whiteSpace=wrap;html=1;" vertex="1" parent="1">
          <mxGeometry x="1647" y="495" width="115" height="70" as="geometry" />
        </mxCell>
        <mxCell id="XtRjt4zz3ca8qq1cEHKN-52" value="" style="endArrow=none;html=1;rounded=0;exitX=1;exitY=0.5;exitDx=0;exitDy=0;entryX=0;entryY=0.5;entryDx=0;entryDy=0;" edge="1" parent="1" source="XtRjt4zz3ca8qq1cEHKN-50" target="XtRjt4zz3ca8qq1cEHKN-51">
          <mxGeometry width="50" height="50" relative="1" as="geometry">
            <mxPoint x="1630" y="710" as="sourcePoint" />
            <mxPoint x="1680" y="660" as="targetPoint" />
          </mxGeometry>
        </mxCell>
        <mxCell id="XtRjt4zz3ca8qq1cEHKN-53" value="" style="endArrow=none;html=1;rounded=0;" edge="1" parent="1">
          <mxGeometry width="50" height="50" relative="1" as="geometry">
            <mxPoint x="1630" y="585" as="sourcePoint" />
            <mxPoint x="1630" y="530" as="targetPoint" />
          </mxGeometry>
        </mxCell>
        <mxCell id="XtRjt4zz3ca8qq1cEHKN-54" value="" style="endArrow=none;html=1;rounded=0;" edge="1" parent="1">
          <mxGeometry width="50" height="50" relative="1" as="geometry">
            <mxPoint x="1490" y="584" as="sourcePoint" />
            <mxPoint x="1770" y="584" as="targetPoint" />
          </mxGeometry>
        </mxCell>
        <mxCell id="XtRjt4zz3ca8qq1cEHKN-55" value="" style="endArrow=classic;html=1;rounded=0;" edge="1" parent="1">
          <mxGeometry width="50" height="50" relative="1" as="geometry">
            <mxPoint x="1490" y="585" as="sourcePoint" />
            <mxPoint x="1490" y="625" as="targetPoint" />
          </mxGeometry>
        </mxCell>
        <mxCell id="XtRjt4zz3ca8qq1cEHKN-56" value="" style="endArrow=classic;html=1;rounded=0;" edge="1" parent="1">
          <mxGeometry width="50" height="50" relative="1" as="geometry">
            <mxPoint x="1770" y="584" as="sourcePoint" />
            <mxPoint x="1770" y="624" as="targetPoint" />
          </mxGeometry>
        </mxCell>
        <mxCell id="XtRjt4zz3ca8qq1cEHKN-57" value="Dhisasri" style="ellipse;whiteSpace=wrap;html=1;" vertex="1" parent="1">
          <mxGeometry x="1430" y="626" width="120" height="65" as="geometry" />
        </mxCell>
        <mxCell id="XtRjt4zz3ca8qq1cEHKN-58" value="Laxasri" style="ellipse;whiteSpace=wrap;html=1;" vertex="1" parent="1">
          <mxGeometry x="1710" y="625" width="120" height="65" as="geometry" />
        </mxCell>
      </root>
    </mxGraphModel>
  </diagram>
  <diagram id="icTK17yu6sLJOe_4rPHC" name="Mekalathottam">
    <mxGraphModel dx="1050" dy="557" grid="1" gridSize="10" guides="1" tooltips="1" connect="1" arrows="1" fold="1" page="1" pageScale="1" pageWidth="850" pageHeight="1100" math="0" shadow="0">
      <root>
        <mxCell id="0" />
        <mxCell id="1" parent="0" />
        <mxCell id="0PyPobGaxYKRrvXqhASr-1" value="Ponnusamy" style="rounded=0;whiteSpace=wrap;html=1;strokeColor=default;" parent="1" vertex="1">
          <mxGeometry x="599" y="280" width="120" height="60" as="geometry" />
        </mxCell>
        <mxCell id="0PyPobGaxYKRrvXqhASr-2" value="Muthatha" style="ellipse;whiteSpace=wrap;html=1;" parent="1" vertex="1">
          <mxGeometry x="780" y="275" width="115" height="70" as="geometry" />
        </mxCell>
        <mxCell id="0PyPobGaxYKRrvXqhASr-3" value="" style="endArrow=none;html=1;rounded=0;exitX=1;exitY=0.5;exitDx=0;exitDy=0;entryX=0;entryY=0.5;entryDx=0;entryDy=0;" parent="1" source="0PyPobGaxYKRrvXqhASr-1" target="0PyPobGaxYKRrvXqhASr-2" edge="1">
          <mxGeometry width="50" height="50" relative="1" as="geometry">
            <mxPoint x="739" y="490" as="sourcePoint" />
            <mxPoint x="789" y="440" as="targetPoint" />
            <Array as="points">
              <mxPoint x="750" y="310" />
            </Array>
          </mxGeometry>
        </mxCell>
        <mxCell id="0PyPobGaxYKRrvXqhASr-4" value="Mekkalathottam" style="text;html=1;align=center;verticalAlign=middle;whiteSpace=wrap;rounded=0;" parent="1" vertex="1">
          <mxGeometry x="629" y="250" width="60" height="30" as="geometry" />
        </mxCell>
        <mxCell id="0PyPobGaxYKRrvXqhASr-5" style="edgeStyle=orthogonalEdgeStyle;rounded=0;orthogonalLoop=1;jettySize=auto;html=1;exitX=1;exitY=0.25;exitDx=0;exitDy=0;entryX=1;entryY=0.5;entryDx=0;entryDy=0;" parent="1" source="0PyPobGaxYKRrvXqhASr-4" target="0PyPobGaxYKRrvXqhASr-4" edge="1">
          <mxGeometry relative="1" as="geometry" />
        </mxCell>
        <mxCell id="0PyPobGaxYKRrvXqhASr-6" value="aatha 1" style="ellipse;whiteSpace=wrap;html=1;" parent="1" vertex="1">
          <mxGeometry x="418" y="266" width="120" height="80" as="geometry" />
        </mxCell>
        <mxCell id="0PyPobGaxYKRrvXqhASr-7" value="" style="endArrow=none;html=1;rounded=0;exitX=1;exitY=0.5;exitDx=0;exitDy=0;entryX=0;entryY=0.5;entryDx=0;entryDy=0;" parent="1" edge="1">
          <mxGeometry width="50" height="50" relative="1" as="geometry">
            <mxPoint x="538" y="306" as="sourcePoint" />
            <mxPoint x="599" y="306" as="targetPoint" />
            <Array as="points">
              <mxPoint x="569" y="306" />
            </Array>
          </mxGeometry>
        </mxCell>
        <mxCell id="0PyPobGaxYKRrvXqhASr-8" value="" style="endArrow=classic;html=1;rounded=0;exitX=0.5;exitY=1;exitDx=0;exitDy=0;" parent="1" source="0PyPobGaxYKRrvXqhASr-6" edge="1">
          <mxGeometry width="50" height="50" relative="1" as="geometry">
            <mxPoint x="720" y="420" as="sourcePoint" />
            <mxPoint x="480" y="390" as="targetPoint" />
          </mxGeometry>
        </mxCell>
        <mxCell id="0PyPobGaxYKRrvXqhASr-9" value="" style="rounded=0;whiteSpace=wrap;html=1;" parent="1" vertex="1">
          <mxGeometry x="418" y="390" width="120" height="60" as="geometry" />
        </mxCell>
        <mxCell id="0PyPobGaxYKRrvXqhASr-10" value="Kuppusamy" style="rounded=0;whiteSpace=wrap;html=1;" parent="1" vertex="1">
          <mxGeometry x="775" y="400" width="120" height="60" as="geometry" />
        </mxCell>
        <mxCell id="0PyPobGaxYKRrvXqhASr-13" value="" style="endArrow=classic;html=1;rounded=0;" parent="1" edge="1">
          <mxGeometry width="50" height="50" relative="1" as="geometry">
            <mxPoint x="839" y="344" as="sourcePoint" />
            <mxPoint x="839" y="400" as="targetPoint" />
          </mxGeometry>
        </mxCell>
        <mxCell id="0PyPobGaxYKRrvXqhASr-14" value="" style="endArrow=none;html=1;rounded=0;" parent="1" edge="1">
          <mxGeometry width="50" height="50" relative="1" as="geometry">
            <mxPoint x="966" y="430" as="sourcePoint" />
            <mxPoint x="896" y="430" as="targetPoint" />
          </mxGeometry>
        </mxCell>
        <mxCell id="0PyPobGaxYKRrvXqhASr-16" value="Eswari" style="ellipse;whiteSpace=wrap;html=1;" parent="1" vertex="1">
          <mxGeometry x="966" y="395" width="120" height="70" as="geometry" />
        </mxCell>
        <mxCell id="0PyPobGaxYKRrvXqhASr-17" value="" style="endArrow=none;html=1;rounded=0;" parent="1" edge="1">
          <mxGeometry width="50" height="50" relative="1" as="geometry">
            <mxPoint x="930" y="490" as="sourcePoint" />
            <mxPoint x="930" y="430" as="targetPoint" />
          </mxGeometry>
        </mxCell>
        <mxCell id="0PyPobGaxYKRrvXqhASr-18" value="" style="endArrow=none;html=1;rounded=0;" parent="1" edge="1">
          <mxGeometry width="50" height="50" relative="1" as="geometry">
            <mxPoint x="1240" y="490" as="sourcePoint" />
            <mxPoint x="746" y="490" as="targetPoint" />
          </mxGeometry>
        </mxCell>
        <mxCell id="0PyPobGaxYKRrvXqhASr-19" value="" style="endArrow=classic;html=1;rounded=0;" parent="1" edge="1">
          <mxGeometry width="50" height="50" relative="1" as="geometry">
            <mxPoint x="747" y="490" as="sourcePoint" />
            <mxPoint x="746.4285714285713" y="530" as="targetPoint" />
          </mxGeometry>
        </mxCell>
        <mxCell id="0PyPobGaxYKRrvXqhASr-20" value="Nandhu" style="rounded=0;whiteSpace=wrap;html=1;" parent="1" vertex="1">
          <mxGeometry x="689" y="530" width="120" height="60" as="geometry" />
        </mxCell>
        <mxCell id="0PyPobGaxYKRrvXqhASr-21" value="" style="endArrow=none;html=1;rounded=0;exitX=1;exitY=0.5;exitDx=0;exitDy=0;" parent="1" source="0PyPobGaxYKRrvXqhASr-20" target="0PyPobGaxYKRrvXqhASr-22" edge="1">
          <mxGeometry width="50" height="50" relative="1" as="geometry">
            <mxPoint x="720" y="420" as="sourcePoint" />
            <mxPoint x="850" y="560" as="targetPoint" />
          </mxGeometry>
        </mxCell>
        <mxCell id="0PyPobGaxYKRrvXqhASr-22" value="Amirtha Varshini" style="ellipse;whiteSpace=wrap;html=1;" parent="1" vertex="1">
          <mxGeometry x="846" y="525" width="120" height="70" as="geometry" />
        </mxCell>
        <mxCell id="0PyPobGaxYKRrvXqhASr-23" value="Devika" style="ellipse;whiteSpace=wrap;html=1;" parent="1" vertex="1">
          <mxGeometry x="1180" y="527.5" width="120" height="65" as="geometry" />
        </mxCell>
        <mxCell id="0PyPobGaxYKRrvXqhASr-24" value="Ramesh" style="rounded=0;whiteSpace=wrap;html=1;" parent="1" vertex="1">
          <mxGeometry x="1020" y="530" width="120" height="60" as="geometry" />
        </mxCell>
        <mxCell id="0PyPobGaxYKRrvXqhASr-26" value="" style="endArrow=none;html=1;rounded=0;entryX=0;entryY=0.5;entryDx=0;entryDy=0;exitX=1;exitY=0.5;exitDx=0;exitDy=0;" parent="1" source="0PyPobGaxYKRrvXqhASr-24" target="0PyPobGaxYKRrvXqhASr-23" edge="1">
          <mxGeometry width="50" height="50" relative="1" as="geometry">
            <mxPoint x="940" y="420" as="sourcePoint" />
            <mxPoint x="990" y="370" as="targetPoint" />
          </mxGeometry>
        </mxCell>
        <mxCell id="0PyPobGaxYKRrvXqhASr-27" value="" style="endArrow=classic;html=1;rounded=0;entryX=0.5;entryY=0;entryDx=0;entryDy=0;" parent="1" target="0PyPobGaxYKRrvXqhASr-23" edge="1">
          <mxGeometry width="50" height="50" relative="1" as="geometry">
            <mxPoint x="1240" y="490" as="sourcePoint" />
            <mxPoint x="756.4285714285713" y="540" as="targetPoint" />
          </mxGeometry>
        </mxCell>
        <mxCell id="0PyPobGaxYKRrvXqhASr-28" value="" style="endArrow=classic;html=1;rounded=0;" parent="1" target="0PyPobGaxYKRrvXqhASr-29" edge="1">
          <mxGeometry width="50" height="50" relative="1" as="geometry">
            <mxPoint x="1160" y="560" as="sourcePoint" />
            <mxPoint x="1160" y="620" as="targetPoint" />
          </mxGeometry>
        </mxCell>
        <mxCell id="0PyPobGaxYKRrvXqhASr-29" value="Raden" style="rounded=0;whiteSpace=wrap;html=1;" parent="1" vertex="1">
          <mxGeometry x="1100" y="620" width="120" height="60" as="geometry" />
        </mxCell>
      </root>
    </mxGraphModel>
  </diagram>
  <diagram id="Gc7Rbs2x3lygUezsOCCb" name="vadakalathottam">
    <mxGraphModel dx="1050" dy="557" grid="1" gridSize="10" guides="1" tooltips="1" connect="1" arrows="1" fold="1" page="1" pageScale="1" pageWidth="850" pageHeight="1100" math="0" shadow="0">
      <root>
        <mxCell id="0" />
        <mxCell id="1" parent="0" />
        <mxCell id="j5D1iztAnu4dEW9jqe6G-1" value="Muthusamy" style="rounded=0;whiteSpace=wrap;html=1;" parent="1" vertex="1">
          <mxGeometry x="290" y="140" width="120" height="60" as="geometry" />
        </mxCell>
        <mxCell id="j5D1iztAnu4dEW9jqe6G-2" value="Markambatti aatha" style="ellipse;whiteSpace=wrap;html=1;" parent="1" vertex="1">
          <mxGeometry x="450" y="135" width="120" height="70" as="geometry" />
        </mxCell>
        <mxCell id="j5D1iztAnu4dEW9jqe6G-3" value="" style="endArrow=none;html=1;rounded=0;exitX=1;exitY=0.5;exitDx=0;exitDy=0;entryX=0;entryY=0.5;entryDx=0;entryDy=0;" parent="1" source="j5D1iztAnu4dEW9jqe6G-1" target="j5D1iztAnu4dEW9jqe6G-2" edge="1">
          <mxGeometry width="50" height="50" relative="1" as="geometry">
            <mxPoint x="400" y="320" as="sourcePoint" />
            <mxPoint x="450" y="270" as="targetPoint" />
          </mxGeometry>
        </mxCell>
        <mxCell id="j5D1iztAnu4dEW9jqe6G-4" value="Vadakala thottam" style="text;html=1;align=center;verticalAlign=middle;whiteSpace=wrap;rounded=0;" parent="1" vertex="1">
          <mxGeometry x="320" y="110" width="60" height="30" as="geometry" />
        </mxCell>
        <mxCell id="j5D1iztAnu4dEW9jqe6G-6" value="" style="endArrow=classic;html=1;rounded=0;" parent="1" target="j5D1iztAnu4dEW9jqe6G-7" edge="1">
          <mxGeometry width="50" height="50" relative="1" as="geometry">
            <mxPoint x="430" y="170" as="sourcePoint" />
            <mxPoint x="430" y="240" as="targetPoint" />
          </mxGeometry>
        </mxCell>
        <mxCell id="j5D1iztAnu4dEW9jqe6G-7" value="Kuppusamy(Rasu)" style="rounded=0;whiteSpace=wrap;html=1;" parent="1" vertex="1">
          <mxGeometry x="370" y="240" width="120" height="60" as="geometry" />
        </mxCell>
        <mxCell id="j5D1iztAnu4dEW9jqe6G-8" value="" style="endArrow=none;html=1;rounded=0;" parent="1" edge="1">
          <mxGeometry width="50" height="50" relative="1" as="geometry">
            <mxPoint x="550" y="270" as="sourcePoint" />
            <mxPoint x="490" y="270" as="targetPoint" />
          </mxGeometry>
        </mxCell>
        <mxCell id="j5D1iztAnu4dEW9jqe6G-9" value="Padma" style="ellipse;whiteSpace=wrap;html=1;" parent="1" vertex="1">
          <mxGeometry x="550" y="235" width="120" height="70" as="geometry" />
        </mxCell>
        <mxCell id="j5D1iztAnu4dEW9jqe6G-11" value="" style="endArrow=none;html=1;rounded=0;" parent="1" edge="1">
          <mxGeometry width="50" height="50" relative="1" as="geometry">
            <mxPoint x="520" y="330" as="sourcePoint" />
            <mxPoint x="520" y="270" as="targetPoint" />
          </mxGeometry>
        </mxCell>
        <mxCell id="j5D1iztAnu4dEW9jqe6G-12" value="" style="endArrow=none;html=1;rounded=0;" parent="1" edge="1">
          <mxGeometry width="50" height="50" relative="1" as="geometry">
            <mxPoint x="360" y="330" as="sourcePoint" />
            <mxPoint x="700" y="330" as="targetPoint" />
          </mxGeometry>
        </mxCell>
        <mxCell id="j5D1iztAnu4dEW9jqe6G-13" value="" style="endArrow=classic;html=1;rounded=0;" parent="1" edge="1">
          <mxGeometry width="50" height="50" relative="1" as="geometry">
            <mxPoint x="360" y="330" as="sourcePoint" />
            <mxPoint x="360" y="380" as="targetPoint" />
          </mxGeometry>
        </mxCell>
        <mxCell id="j5D1iztAnu4dEW9jqe6G-14" value="" style="endArrow=classic;html=1;rounded=0;" parent="1" edge="1">
          <mxGeometry width="50" height="50" relative="1" as="geometry">
            <mxPoint x="700" y="330" as="sourcePoint" />
            <mxPoint x="700" y="380" as="targetPoint" />
          </mxGeometry>
        </mxCell>
        <mxCell id="j5D1iztAnu4dEW9jqe6G-15" value="Gokul Sugan" style="rounded=0;whiteSpace=wrap;html=1;" parent="1" vertex="1">
          <mxGeometry x="305" y="380" width="120" height="60" as="geometry" />
        </mxCell>
        <mxCell id="j5D1iztAnu4dEW9jqe6G-16" value="Inba Sugan" style="rounded=0;whiteSpace=wrap;html=1;" parent="1" vertex="1">
          <mxGeometry x="640" y="380" width="120" height="60" as="geometry" />
        </mxCell>
      </root>
    </mxGraphModel>
  </diagram>
  <diagram id="tsoZlb3kFRRCv6Lun-5c" name="Chinnathathathottam">
    <mxGraphModel dx="1900" dy="557" grid="1" gridSize="10" guides="1" tooltips="1" connect="1" arrows="1" fold="1" page="1" pageScale="1" pageWidth="850" pageHeight="1100" math="0" shadow="0">
      <root>
        <mxCell id="0" />
        <mxCell id="1" parent="0" />
        <mxCell id="SRD3FFdYz8BMkntBpXS3-1" value="Ramasamy" style="rounded=0;whiteSpace=wrap;html=1;" parent="1" vertex="1">
          <mxGeometry x="260" y="160" width="120" height="60" as="geometry" />
        </mxCell>
        <mxCell id="SRD3FFdYz8BMkntBpXS3-2" value="aatha" style="ellipse;whiteSpace=wrap;html=1;" parent="1" vertex="1">
          <mxGeometry x="430" y="160" width="120" height="60" as="geometry" />
        </mxCell>
        <mxCell id="SRD3FFdYz8BMkntBpXS3-3" value="" style="endArrow=none;html=1;rounded=0;exitX=1;exitY=0.5;exitDx=0;exitDy=0;entryX=0;entryY=0.5;entryDx=0;entryDy=0;" parent="1" source="SRD3FFdYz8BMkntBpXS3-1" target="SRD3FFdYz8BMkntBpXS3-2" edge="1">
          <mxGeometry width="50" height="50" relative="1" as="geometry">
            <mxPoint x="400" y="320" as="sourcePoint" />
            <mxPoint x="450" y="270" as="targetPoint" />
          </mxGeometry>
        </mxCell>
        <mxCell id="SRD3FFdYz8BMkntBpXS3-4" value="Chinnathatha thottam" style="text;html=1;align=center;verticalAlign=middle;whiteSpace=wrap;rounded=0;" parent="1" vertex="1">
          <mxGeometry x="290" y="130" width="60" height="30" as="geometry" />
        </mxCell>
        <mxCell id="SRD3FFdYz8BMkntBpXS3-5" value="" style="endArrow=none;html=1;rounded=0;" parent="1" edge="1">
          <mxGeometry width="50" height="50" relative="1" as="geometry">
            <mxPoint x="406" y="190" as="sourcePoint" />
            <mxPoint x="406" y="250" as="targetPoint" />
          </mxGeometry>
        </mxCell>
        <mxCell id="SRD3FFdYz8BMkntBpXS3-6" value="" style="endArrow=none;html=1;rounded=0;" parent="1" edge="1">
          <mxGeometry width="50" height="50" relative="1" as="geometry">
            <mxPoint x="260" y="250" as="sourcePoint" />
            <mxPoint x="690" y="250" as="targetPoint" />
          </mxGeometry>
        </mxCell>
        <mxCell id="SRD3FFdYz8BMkntBpXS3-7" value="" style="endArrow=classic;html=1;rounded=0;" parent="1" edge="1">
          <mxGeometry width="50" height="50" relative="1" as="geometry">
            <mxPoint x="260" y="250" as="sourcePoint" />
            <mxPoint x="260" y="300" as="targetPoint" />
          </mxGeometry>
        </mxCell>
        <mxCell id="SRD3FFdYz8BMkntBpXS3-8" value="Mani" style="ellipse;whiteSpace=wrap;html=1;" parent="1" vertex="1">
          <mxGeometry x="200" y="300" width="120" height="60" as="geometry" />
        </mxCell>
        <mxCell id="SRD3FFdYz8BMkntBpXS3-9" value="Nachimuthu" style="rounded=0;whiteSpace=wrap;html=1;" parent="1" vertex="1">
          <mxGeometry x="40" y="300" width="120" height="60" as="geometry" />
        </mxCell>
        <mxCell id="SRD3FFdYz8BMkntBpXS3-10" value="" style="endArrow=none;html=1;rounded=0;exitX=1;exitY=0.5;exitDx=0;exitDy=0;entryX=0;entryY=0.5;entryDx=0;entryDy=0;" parent="1" source="SRD3FFdYz8BMkntBpXS3-9" target="SRD3FFdYz8BMkntBpXS3-8" edge="1">
          <mxGeometry width="50" height="50" relative="1" as="geometry">
            <mxPoint x="400" y="320" as="sourcePoint" />
            <mxPoint x="450" y="270" as="targetPoint" />
          </mxGeometry>
        </mxCell>
        <mxCell id="SRD3FFdYz8BMkntBpXS3-11" value="" style="endArrow=classic;html=1;rounded=0;" parent="1" edge="1">
          <mxGeometry width="50" height="50" relative="1" as="geometry">
            <mxPoint x="690" y="250" as="sourcePoint" />
            <mxPoint x="690" y="300" as="targetPoint" />
          </mxGeometry>
        </mxCell>
        <mxCell id="SRD3FFdYz8BMkntBpXS3-12" value="Chellamuthu" style="rounded=0;whiteSpace=wrap;html=1;" parent="1" vertex="1">
          <mxGeometry x="630" y="300" width="120" height="60" as="geometry" />
        </mxCell>
        <mxCell id="SRD3FFdYz8BMkntBpXS3-13" value="Sudha" style="ellipse;whiteSpace=wrap;html=1;" parent="1" vertex="1">
          <mxGeometry x="790" y="300" width="120" height="60" as="geometry" />
        </mxCell>
        <mxCell id="SRD3FFdYz8BMkntBpXS3-14" value="" style="endArrow=none;html=1;rounded=0;entryX=0;entryY=0.5;entryDx=0;entryDy=0;exitX=1;exitY=0.5;exitDx=0;exitDy=0;" parent="1" source="SRD3FFdYz8BMkntBpXS3-12" target="SRD3FFdYz8BMkntBpXS3-13" edge="1">
          <mxGeometry width="50" height="50" relative="1" as="geometry">
            <mxPoint x="570" y="320" as="sourcePoint" />
            <mxPoint x="620" y="270" as="targetPoint" />
          </mxGeometry>
        </mxCell>
        <mxCell id="SRD3FFdYz8BMkntBpXS3-15" value="" style="endArrow=none;html=1;rounded=0;" parent="1" edge="1">
          <mxGeometry width="50" height="50" relative="1" as="geometry">
            <mxPoint x="180" y="330" as="sourcePoint" />
            <mxPoint x="180" y="380" as="targetPoint" />
          </mxGeometry>
        </mxCell>
        <mxCell id="SRD3FFdYz8BMkntBpXS3-16" value="" style="endArrow=none;html=1;rounded=0;" parent="1" edge="1">
          <mxGeometry width="50" height="50" relative="1" as="geometry">
            <mxPoint x="60" y="380" as="sourcePoint" />
            <mxPoint x="260" y="380" as="targetPoint" />
          </mxGeometry>
        </mxCell>
        <mxCell id="SRD3FFdYz8BMkntBpXS3-17" value="" style="endArrow=classic;html=1;rounded=0;" parent="1" edge="1">
          <mxGeometry width="50" height="50" relative="1" as="geometry">
            <mxPoint x="60" y="380" as="sourcePoint" />
            <mxPoint x="60" y="430" as="targetPoint" />
          </mxGeometry>
        </mxCell>
        <mxCell id="SRD3FFdYz8BMkntBpXS3-18" value="" style="endArrow=classic;html=1;rounded=0;" parent="1" edge="1">
          <mxGeometry width="50" height="50" relative="1" as="geometry">
            <mxPoint x="260" y="380" as="sourcePoint" />
            <mxPoint x="260" y="430" as="targetPoint" />
          </mxGeometry>
        </mxCell>
        <mxCell id="SRD3FFdYz8BMkntBpXS3-19" value="Nandhini" style="ellipse;whiteSpace=wrap;html=1;" parent="1" vertex="1">
          <mxGeometry y="430" width="120" height="80" as="geometry" />
        </mxCell>
        <mxCell id="SRD3FFdYz8BMkntBpXS3-20" value="Saravanan" style="rounded=0;whiteSpace=wrap;html=1;" parent="1" vertex="1">
          <mxGeometry x="-170" y="440" width="120" height="60" as="geometry" />
        </mxCell>
        <mxCell id="SRD3FFdYz8BMkntBpXS3-21" value="" style="endArrow=none;html=1;rounded=0;entryX=0;entryY=0.5;entryDx=0;entryDy=0;exitX=1;exitY=0.5;exitDx=0;exitDy=0;" parent="1" source="SRD3FFdYz8BMkntBpXS3-20" target="SRD3FFdYz8BMkntBpXS3-19" edge="1">
          <mxGeometry width="50" height="50" relative="1" as="geometry">
            <mxPoint x="-50" y="480" as="sourcePoint" />
            <mxPoint y="430" as="targetPoint" />
          </mxGeometry>
        </mxCell>
        <mxCell id="SRD3FFdYz8BMkntBpXS3-22" value="Naveen" style="rounded=0;whiteSpace=wrap;html=1;" parent="1" vertex="1">
          <mxGeometry x="200" y="430" width="120" height="60" as="geometry" />
        </mxCell>
        <mxCell id="SRD3FFdYz8BMkntBpXS3-23" value="SenbagaPriya" style="ellipse;whiteSpace=wrap;html=1;" parent="1" vertex="1">
          <mxGeometry x="365" y="420" width="120" height="80" as="geometry" />
        </mxCell>
        <mxCell id="SRD3FFdYz8BMkntBpXS3-24" value="" style="endArrow=none;html=1;rounded=0;entryX=0;entryY=0.5;entryDx=0;entryDy=0;exitX=1;exitY=0.5;exitDx=0;exitDy=0;" parent="1" source="SRD3FFdYz8BMkntBpXS3-22" target="SRD3FFdYz8BMkntBpXS3-23" edge="1">
          <mxGeometry width="50" height="50" relative="1" as="geometry">
            <mxPoint x="210" y="520" as="sourcePoint" />
            <mxPoint x="260" y="470" as="targetPoint" />
          </mxGeometry>
        </mxCell>
        <mxCell id="SRD3FFdYz8BMkntBpXS3-25" value="" style="endArrow=none;html=1;rounded=0;" parent="1" edge="1">
          <mxGeometry width="50" height="50" relative="1" as="geometry">
            <mxPoint x="-24" y="470" as="sourcePoint" />
            <mxPoint x="-24" y="530" as="targetPoint" />
          </mxGeometry>
        </mxCell>
        <mxCell id="SRD3FFdYz8BMkntBpXS3-26" value="" style="endArrow=none;html=1;rounded=0;" parent="1" edge="1">
          <mxGeometry width="50" height="50" relative="1" as="geometry">
            <mxPoint x="-140" y="531" as="sourcePoint" />
            <mxPoint x="100" y="531" as="targetPoint" />
          </mxGeometry>
        </mxCell>
        <mxCell id="SRD3FFdYz8BMkntBpXS3-27" value="" style="endArrow=classic;html=1;rounded=0;" parent="1" edge="1">
          <mxGeometry width="50" height="50" relative="1" as="geometry">
            <mxPoint x="-140" y="530" as="sourcePoint" />
            <mxPoint x="-140" y="580" as="targetPoint" />
          </mxGeometry>
        </mxCell>
        <mxCell id="SRD3FFdYz8BMkntBpXS3-28" value="" style="endArrow=classic;html=1;rounded=0;" parent="1" edge="1">
          <mxGeometry width="50" height="50" relative="1" as="geometry">
            <mxPoint x="99.5" y="530" as="sourcePoint" />
            <mxPoint x="99.5" y="580" as="targetPoint" />
          </mxGeometry>
        </mxCell>
        <mxCell id="SRD3FFdYz8BMkntBpXS3-29" value="Sagashiya" style="ellipse;whiteSpace=wrap;html=1;" parent="1" vertex="1">
          <mxGeometry x="-200" y="580" width="120" height="60" as="geometry" />
        </mxCell>
        <mxCell id="SRD3FFdYz8BMkntBpXS3-30" value="Krithikshiya" style="ellipse;whiteSpace=wrap;html=1;" parent="1" vertex="1">
          <mxGeometry x="40" y="580" width="120" height="60" as="geometry" />
        </mxCell>
        <mxCell id="SRD3FFdYz8BMkntBpXS3-33" value="" style="endArrow=classic;html=1;rounded=0;" parent="1" target="SRD3FFdYz8BMkntBpXS3-34" edge="1">
          <mxGeometry width="50" height="50" relative="1" as="geometry">
            <mxPoint x="345" y="460" as="sourcePoint" />
            <mxPoint x="345" y="530" as="targetPoint" />
          </mxGeometry>
        </mxCell>
        <mxCell id="SRD3FFdYz8BMkntBpXS3-34" value="Ruthvika" style="ellipse;whiteSpace=wrap;html=1;" parent="1" vertex="1">
          <mxGeometry x="285" y="570" width="120" height="60" as="geometry" />
        </mxCell>
        <mxCell id="SRD3FFdYz8BMkntBpXS3-35" value="" style="endArrow=none;html=1;rounded=0;" parent="1" edge="1">
          <mxGeometry width="50" height="50" relative="1" as="geometry">
            <mxPoint x="770" y="390" as="sourcePoint" />
            <mxPoint x="770" y="330" as="targetPoint" />
          </mxGeometry>
        </mxCell>
        <mxCell id="SRD3FFdYz8BMkntBpXS3-36" value="" style="endArrow=none;html=1;rounded=0;" parent="1" edge="1">
          <mxGeometry width="50" height="50" relative="1" as="geometry">
            <mxPoint x="650" y="390" as="sourcePoint" />
            <mxPoint x="890" y="390" as="targetPoint" />
          </mxGeometry>
        </mxCell>
        <mxCell id="SRD3FFdYz8BMkntBpXS3-37" value="" style="endArrow=classic;html=1;rounded=0;" parent="1" edge="1">
          <mxGeometry width="50" height="50" relative="1" as="geometry">
            <mxPoint x="650" y="390" as="sourcePoint" />
            <mxPoint x="650" y="430" as="targetPoint" />
          </mxGeometry>
        </mxCell>
        <mxCell id="SRD3FFdYz8BMkntBpXS3-38" value="" style="endArrow=classic;html=1;rounded=0;" parent="1" edge="1">
          <mxGeometry width="50" height="50" relative="1" as="geometry">
            <mxPoint x="890" y="390" as="sourcePoint" />
            <mxPoint x="890" y="430" as="targetPoint" />
          </mxGeometry>
        </mxCell>
        <mxCell id="SRD3FFdYz8BMkntBpXS3-39" value="Inba Sugan" style="rounded=0;whiteSpace=wrap;html=1;" parent="1" vertex="1">
          <mxGeometry x="840" y="430" width="120" height="60" as="geometry" />
        </mxCell>
        <mxCell id="SRD3FFdYz8BMkntBpXS3-40" value="Vani Sri" style="ellipse;whiteSpace=wrap;html=1;" parent="1" vertex="1">
          <mxGeometry x="590" y="430" width="120" height="70" as="geometry" />
        </mxCell>
      </root>
    </mxGraphModel>
  </diagram>
</mxfile>
